<svg xmlns="http://www.w3.org/2000/svg" width="582.2743530273438" height="211.72906494140625" viewBox="-262.79010009765625 -17.404619216918945 582.2743530273438 211.72906494140625"><title>Neo4j Graph Visualization</title><desc>Created using Neo4j (http://www.neo4j.com/)</desc><g class="layer relationships"><g class="relationship" transform="translate(213.60354296735147 88.44375767273314) rotate(180.11022747091113)"><path class="outline" fill="#A5ABB6" stroke="none" d="M 8.894581878976458 31.263179831843463 L 19.247343683077286 69.90021288340618 A 19.926316451256394 19.926316451256394 0 1 1 -19.247343683077286 69.90021288340618 L -10.706315194694104 38.024660615866935 L -6.842611889537831 39.05993679627702 L -8.411618965831924 31.392589354394723 L -13.60409267356131 37.248203480559376 L -9.740389368405035 38.283479660969455 L -18.28141785678822 70.15903192850871 A 18.926316451256394 18.926316451256394 0 1 0 18.28141785678822 70.15903192850871 L 7.92865605268739 31.521998876945982 Z"/><text text-anchor="middle" pointer-events="none" font-size="8px" fill="#000000" x="0" y="103.98383953098741" transform="rotate(180 0 100.98383953098741)" font-family="sans-serif">DEPENDS_…</text></g><g class="relationship" transform="translate(213.60354296735147 88.44375767273314) rotate(270.1102274709111)"><path class="outline" fill="#A5ABB6" stroke="none" d="M 8.894581878976458 31.263179831843463 L 19.247343683077286 69.90021288340618 A 19.926316451256394 19.926316451256394 0 1 1 -19.247343683077286 69.90021288340618 L -10.706315194694104 38.024660615866935 L -6.842611889537831 39.05993679627702 L -8.411618965831924 31.392589354394723 L -13.60409267356131 37.248203480559376 L -9.740389368405035 38.283479660969455 L -18.28141785678822 70.15903192850871 A 18.926316451256394 18.926316451256394 0 1 0 18.28141785678822 70.15903192850871 L 7.92865605268739 31.521998876945982 Z"/><text text-anchor="middle" pointer-events="none" font-size="8px" fill="#000000" x="0" y="103.98383953098741" font-family="sans-serif">PEER_DEP…</text></g><g class="relationship" transform="translate(-64.41194058948076 87.90890184750343) rotate(360.1102274709111)"><path class="outline" fill="#A5ABB6" stroke="none" d="M 22.627416997969522,-23.334523779156065 L 23.33452377915607,-22.62741699796952 A 162.30512227823846 162.30512227823846 0 0 1 105.02741231997572,-66.75986847392917 L 104.8236346228878,-67.7388856597689 A 163.30512227823846 163.30512227823846 0 0 0 22.627416997969522,-23.334523779156065 Z M 165.76755503344583,-68.80494054643108 L 165.59814222946227,-67.81939536641832 A 162.30512227823846 162.30512227823846 0 0 1 248.78454458413228,-26.57107691938776 L 246.73871325113873,-24.376863129224667 L 254.24534865001175,-22.1631727740967 L 251.51231969479034,-29.49669530627189 L 249.4664883617968,-27.302481516108795 A 163.30512227823846 163.30512227823846 0 0 0 165.76755503344583,-68.80494054643108"/><text text-anchor="middle" pointer-events="none" font-size="8px" fill="#000000" x="135.25416110106616" y="-67.64058454612555" font-family="sans-serif">DEPENDS_ON</text></g><g class="relationship" transform="translate(213.60354296735147 88.44375767273314) rotate(180.11022747091113)"><path class="outline" fill="#A5ABB6" stroke="none" d="M 31.26317983184346,8.894581878976458 L 31.52199887694598,7.92865605268739 A 411.7918657966096 411.7918657966096 0 0 0 107.65089024047612,20.832715076973273 L 107.57694345169234,21.829977265381444 A 412.7918657966096 412.7918657966096 0 0 1 31.26317983184346,8.894581878976458 Z M 163.38602746079118,22.185030541487663 L 163.32477516104302,21.18690822645027 A 411.7918657966096 411.7918657966096 0 0 0 239.61168697474676,9.252507300111645 L 238.87216209062865,6.345085255452473 L 246.51892589297117,8.01151957794596 L 240.5977201535709,13.129070026323875 L 239.85819526945278,10.221647981664702 A 412.7918657966096 412.7918657966096 0 0 1 163.38602746079118,22.185030541487663"/><text text-anchor="middle" pointer-events="none" font-size="8px" fill="#000000" x="135.47865900256542" y="25.451780301616452" transform="rotate(180 135.47865900256542 22.451780301616452)" font-family="sans-serif">HOSTED_ON</text></g><g class="relationship" transform="translate(-64.41194058948076 87.90890184750343) rotate(360.1102274709111)"><path class="outline" fill="#A5ABB6" stroke="none" d="M 31.26317983184346,8.894581878976458 L 31.52199887694598,7.92865605268739 A 411.7918657966096 411.7918657966096 0 0 0 91.9522592842302,19.36598664145322 L 91.84018976340587,20.35968701002622 A 412.7918657966096 412.7918657966096 0 0 1 31.26317983184346,8.894581878976458 Z M 179.14021433774474,20.915083327303535 L 179.04079707356215,19.920037495403108 A 411.7918657966096 411.7918657966096 0 0 0 239.61168697474676,9.252507300111645 L 238.87216209062865,6.345085255452473 L 246.51892589297117,8.01151957794596 L 240.5977201535709,13.129070026323875 L 239.85819526945278,10.221647981664702 A 412.7918657966096 412.7918657966096 0 0 1 179.14021433774474,20.915083327303535"/><text text-anchor="middle" pointer-events="none" font-size="8px" fill="#000000" x="135.47865900256542" y="25.451780301616452" font-family="sans-serif">PEER_DEPENDS_ON</text></g><g class="relationship" transform="translate(-64.41194058948076 87.90890184750343) rotate(360.1102274709111)"><path class="outline" fill="#A5ABB6" stroke="none" d="M 22.627416997969522,23.334523779156065 L 23.33452377915607,22.62741699796952 A 162.30512227823846 162.30512227823846 0 0 0 94.90396499706756,64.31137620333703 L 94.63781436201681,65.27530765290288 A 163.30512227823846 163.30512227823846 0 0 1 22.627416997969522,23.334523779156065 Z M 176.03330518588598,66.69910940639201 L 175.80102999271816,65.72645929734003 A 162.30512227823846 162.30512227823846 0 0 0 248.78454458413228,26.57107691938776 L 246.73871325113873,24.376863129224667 L 254.24534865001175,22.1631727740967 L 251.51231969479034,29.49669530627189 L 249.4664883617968,27.302481516108795 A 163.30512227823846 163.30512227823846 0 0 1 176.03330518588598,66.69910940639201"/><text text-anchor="middle" pointer-events="none" font-size="8px" fill="#000000" x="135.25416110106616" y="73.64058454612555" font-family="sans-serif">DEV_DEPENDS_ON</text></g><g class="relationship" transform="translate(213.60354296735147 88.44375767273314) rotate(360.1102274709111)"><path class="outline" fill="#A5ABB6" stroke="none" d="M 8.894581878976458 31.263179831843463 L 19.247343683077286 69.90021288340618 A 19.926316451256394 19.926316451256394 0 1 1 -19.247343683077286 69.90021288340618 L -10.706315194694104 38.024660615866935 L -6.842611889537831 39.05993679627702 L -8.411618965831924 31.392589354394723 L -13.60409267356131 37.248203480559376 L -9.740389368405035 38.283479660969455 L -18.28141785678822 70.15903192850871 A 18.926316451256394 18.926316451256394 0 1 0 18.28141785678822 70.15903192850871 L 7.92865605268739 31.521998876945982 Z"/><text text-anchor="middle" pointer-events="none" font-size="8px" fill="#000000" x="0" y="103.98383953098741" font-family="sans-serif">DEV_DEPE…</text></g><g class="relationship" transform="translate(-226.2901036913621 87.39973198748916) rotate(360.1802169438253)"><path class="outline" fill="#A5ABB6" stroke="none" d="M 32.5 0.5 L 61.99612255932183 0.5 L 61.99612255932183 -0.5 L 32.5 -0.5 Z M 92.88284130932183 0.5 L 122.37896386864367 0.5 L 122.37896386864367 3.5 L 129.37896386864367 0 L 122.37896386864367 -3.5 L 122.37896386864367 -0.5 L 92.88284130932183 -0.5 Z"/><text text-anchor="middle" pointer-events="none" font-size="8px" fill="#000000" x="77.43948193432183" y="3" font-family="sans-serif">OWNS</text></g></g><g class="layer nodes"><g class="node" transform="translate(-64.41194058948076,87.90890184750343)"><circle class="outline" cx="0" cy="0" r="32.5" fill="#C990C0" stroke="#b261a5" stroke-width="2px"/><text text-anchor="middle" pointer-events="none" font-family="sans-serif" dy="2.03125" font-size="32.5" fill="#FFFFFF"/><text text-anchor="middle" pointer-events="none" y="5" font-size="10px" fill="#FFFFFF" font-family="sans-serif"> GitRepo</text></g><g class="node" transform="translate(-226.2901036913621,87.39973198748916)"><circle class="outline" cx="0" cy="0" r="32.5" fill="#D9C8AE" stroke="#c0a378" stroke-width="2px"/><text text-anchor="middle" pointer-events="none" font-family="sans-serif" dy="2.03125" font-size="32.5" fill="#604A0E"/><text text-anchor="middle" pointer-events="none" y="5" font-size="10px" fill="#604A0E" font-family="sans-serif"> GitUser</text></g><g class="node" transform="translate(213.60354296735147,88.44375767273314)"><circle class="outline" cx="0" cy="0" r="32.5" fill="#8DCC93" stroke="#5db665" stroke-width="2px"/><text text-anchor="middle" pointer-events="none" font-family="sans-serif" dy="2.03125" font-size="32.5" fill="#604A0E"/><text text-anchor="middle" pointer-events="none" y="5" font-size="10px" fill="#604A0E" font-family="sans-serif"> NodeModule</text></g></g></svg>