<svg xmlns="http://www.w3.org/2000/svg" width="699.701416015625" height="516.0848388671875" viewBox="-423.7311706542969 -125.30411529541016 699.701416015625 516.0848388671875"><title>Neo4j Graph Visualization</title><desc>Created using Neo4j (http://www.neo4j.com/)</desc><g class="layer relationships"><g class="relationship" transform="translate(67.51899688106177 148.9430120420763) rotate(349.4710469608931)"><path class="outline" fill="#A5ABB6" stroke="none" d="M 32.5 0.5 L 53.38548696838194 0.5 L 53.38548696838194 -0.5 L 32.5 -0.5 Z M 114.51048696838194 0.5 L 135.39597393676388 0.5 L 135.39597393676388 3.5 L 142.39597393676388 0 L 135.39597393676388 -3.5 L 135.39597393676388 -0.5 L 114.51048696838194 -0.5 Z"/><text text-anchor="middle" pointer-events="none" font-size="8px" fill="#000000" x="83.94798696838194" y="3" font-family="sans-serif">DEPENDS_ON</text></g><g class="relationship" transform="translate(67.51899688106177 148.9430120420763) rotate(499.49246487038613)"><path class="outline" fill="#A5ABB6" stroke="none" d="M 32.5 0.5 L 123.99950492521651 0.5 L 123.99950492521651 -0.5 L 32.5 -0.5 Z M 185.1245049252165 0.5 L 276.624009850433 0.5 L 276.624009850433 3.5 L 283.624009850433 0 L 276.624009850433 -3.5 L 276.624009850433 -0.5 L 185.1245049252165 -0.5 Z"/><text text-anchor="middle" pointer-events="none" font-size="8px" fill="#000000" x="154.5620049252165" y="3" transform="rotate(180 154.5620049252165 0)" font-family="sans-serif">DEPENDS_ON</text></g><g class="relationship" transform="translate(-172.83658361266689 354.2807448858948) rotate(197.00964640669042)"><path class="outline" fill="#A5ABB6" stroke="none" d="M 32.5 0.5 L 47.6276340225874 0.5 L 47.6276340225874 -0.5 L 32.5 -0.5 Z M 108.7526340225874 0.5 L 123.8802680451748 0.5 L 123.8802680451748 3.5 L 130.8802680451748 0 L 123.8802680451748 -3.5 L 123.8802680451748 -0.5 L 108.7526340225874 -0.5 Z"/><text text-anchor="middle" pointer-events="none" font-size="8px" fill="#000000" x="78.1901340225874" y="3" transform="rotate(180 78.1901340225874 0)" font-family="sans-serif">DEPENDS_ON</text></g><g class="relationship" transform="translate(-172.83658361266689 354.2807448858948) rotate(270.4116429782081)"><path class="outline" fill="#A5ABB6" stroke="none" d="M 32.5 0.5 L 103.98694458909759 0.5 L 103.98694458909759 -0.5 L 32.5 -0.5 Z M 165.1119445890976 0.5 L 236.59888917819518 0.5 L 236.59888917819518 3.5 L 243.59888917819518 0 L 236.59888917819518 -3.5 L 236.59888917819518 -0.5 L 165.1119445890976 -0.5 Z"/><text text-anchor="middle" pointer-events="none" font-size="8px" fill="#000000" x="134.5494445890976" y="3" font-family="sans-serif">DEPENDS_ON</text></g><g class="relationship" transform="translate(-170.85296121963705 78.1889814309971) rotate(526.5562697036471)"><path class="outline" fill="#A5ABB6" stroke="none" d="M 32.5 0.5 L 77.17463764374793 0.5 L 77.17463764374793 -0.5 L 32.5 -0.5 Z M 138.29963764374793 0.5 L 182.97427528749586 0.5 L 182.97427528749586 3.5 L 189.97427528749586 0 L 182.97427528749586 -3.5 L 182.97427528749586 -0.5 L 138.29963764374793 -0.5 Z"/><text text-anchor="middle" pointer-events="none" font-size="8px" fill="#000000" x="107.73713764374793" y="3" transform="rotate(180 107.73713764374793 0)" font-family="sans-serif">DEPENDS_ON</text></g><g class="relationship" transform="translate(-170.85296121963705 78.1889814309971) rotate(232.55591015610145)"><path class="outline" fill="#A5ABB6" stroke="none" d="M 32.5 0.5 L 70.42179226841381 0.5 L 70.42179226841381 -0.5 L 32.5 -0.5 Z M 131.5467922684138 0.5 L 169.46858453682762 0.5 L 169.46858453682762 3.5 L 176.46858453682762 0 L 169.46858453682762 -3.5 L 169.46858453682762 -0.5 L 131.5467922684138 -0.5 Z"/><text text-anchor="middle" pointer-events="none" font-size="8px" fill="#000000" x="100.98429226841381" y="3" transform="rotate(180 100.98429226841381 0)" font-family="sans-serif">DEPENDS_ON</text></g><g class="relationship" transform="translate(-170.85296121963705 78.1889814309971) rotate(389.72394590816594)"><path class="outline" fill="#A5ABB6" stroke="none" d="M 32.5 0.5 L 181.618641197293 0.5 L 181.618641197293 -0.5 L 32.5 -0.5 Z M 242.743641197293 0.5 L 391.862282394586 0.5 L 391.862282394586 3.5 L 398.862282394586 0 L 391.862282394586 -3.5 L 391.862282394586 -0.5 L 242.743641197293 -0.5 Z"/><text text-anchor="middle" pointer-events="none" font-size="8px" fill="#000000" x="212.181141197293" y="3" font-family="sans-serif">DEPENDS_ON</text></g><g class="relationship" transform="translate(-170.85296121963705 78.1889814309971) rotate(376.53204472822324)"><path class="outline" fill="#A5ABB6" stroke="none" d="M 32.5 0.5 L 90.26300347422169 0.5 L 90.26300347422169 -0.5 L 32.5 -0.5 Z M 151.3880034742217 0.5 L 209.15100694844338 0.5 L 209.15100694844338 3.5 L 216.15100694844338 0 L 209.15100694844338 -3.5 L 209.15100694844338 -0.5 L 151.3880034742217 -0.5 Z"/><text text-anchor="middle" pointer-events="none" font-size="8px" fill="#000000" x="120.82550347422169" y="3" font-family="sans-serif">DEPENDS_ON</text></g><g class="relationship" transform="translate(239.47019373487734 116.98385686191631) rotate(220.96358334105105)"><path class="outline" fill="#A5ABB6" stroke="none" d="M 32.5 0.5 L 122.88876394607868 0.5 L 122.88876394607868 -0.5 L 32.5 -0.5 Z M 184.01376394607868 0.5 L 274.40252789215737 0.5 L 274.40252789215737 3.5 L 281.40252789215737 0 L 274.40252789215737 -3.5 L 274.40252789215737 -0.5 L 184.01376394607868 -0.5 Z"/><text text-anchor="middle" pointer-events="none" font-size="8px" fill="#000000" x="153.45126394607868" y="3" transform="rotate(180 153.45126394607868 0)" font-family="sans-serif">DEPENDS_ON</text></g><g class="relationship" transform="translate(2.4341039085387948 -88.80411445061347) rotate(510.69482725734815)"><path class="outline" fill="#A5ABB6" stroke="none" d="M 32.5 0.5 L 189.36298716380153 0.5 L 189.36298716380153 -0.5 L 32.5 -0.5 Z M 250.48798716380153 0.5 L 407.35097432760307 0.5 L 407.35097432760307 3.5 L 414.35097432760307 0 L 407.35097432760307 -3.5 L 407.35097432760307 -0.5 L 250.48798716380153 -0.5 Z"/><text text-anchor="middle" pointer-events="none" font-size="8px" fill="#000000" x="219.92548716380153" y="3" transform="rotate(180 219.92548716380153 0)" font-family="sans-serif">DEPENDS_ON</text></g><g class="relationship" transform="translate(2.4341039085387948 -88.80411445061347) rotate(539.7933735005765)"><path class="outline" fill="#A5ABB6" stroke="none" d="M 32.5 0.5 L 116.10709757297863 0.5 L 116.10709757297863 -0.5 L 32.5 -0.5 Z M 177.23209757297863 0.5 L 260.83919514595726 0.5 L 260.83919514595726 3.5 L 267.83919514595726 0 L 260.83919514595726 -3.5 L 260.83919514595726 -0.5 L 177.23209757297863 -0.5 Z"/><text text-anchor="middle" pointer-events="none" font-size="8px" fill="#000000" x="146.66959757297863" y="3" transform="rotate(180 146.66959757297863 0)" font-family="sans-serif">DEPENDS_ON</text></g><g class="relationship" transform="translate(2.4341039085387948 -88.80411445061347) rotate(422.1402939147088)"><path class="outline" fill="#A5ABB6" stroke="none" d="M 32.5 0.5 L 181.33973487368067 0.5 L 181.33973487368067 -0.5 L 32.5 -0.5 Z M 242.46473487368067 0.5 L 391.30446974736134 0.5 L 391.30446974736134 3.5 L 398.30446974736134 0 L 391.30446974736134 -3.5 L 391.30446974736134 -0.5 L 242.46473487368067 -0.5 Z"/><text text-anchor="middle" pointer-events="none" font-size="8px" fill="#000000" x="211.90223487368067" y="3" font-family="sans-serif">DEPENDS_ON</text></g><g class="relationship" transform="translate(2.4341039085387948 -88.80411445061347) rotate(434.68999175272234)"><path class="outline" fill="#A5ABB6" stroke="none" d="M 32.5 0.5 L 89.18495377570261 0.5 L 89.18495377570261 -0.5 L 32.5 -0.5 Z M 150.3099537757026 0.5 L 206.99490755140522 0.5 L 206.99490755140522 3.5 L 213.99490755140522 0 L 206.99490755140522 -3.5 L 206.99490755140522 -0.5 L 150.3099537757026 -0.5 Z"/><text text-anchor="middle" pointer-events="none" font-size="8px" fill="#000000" x="119.74745377570261" y="3" font-family="sans-serif">DEPENDS_ON</text></g><g class="relationship" transform="translate(2.4341039085387948 -88.80411445061347) rotate(496.0596467244999)"><path class="outline" fill="#A5ABB6" stroke="none" d="M 32.5 0.5 L 86.26528254923241 0.5 L 86.26528254923241 -0.5 L 32.5 -0.5 Z M 147.3902825492324 0.5 L 201.15556509846482 0.5 L 201.15556509846482 3.5 L 208.15556509846482 0 L 201.15556509846482 -3.5 L 201.15556509846482 -0.5 L 147.3902825492324 -0.5 Z"/><text text-anchor="middle" pointer-events="none" font-size="8px" fill="#000000" x="116.82778254923241" y="3" transform="rotate(180 116.82778254923241 0)" font-family="sans-serif">DEPENDS_ON</text></g><g class="relationship" transform="translate(203.7525567196792 292.0677428873024) rotate(226.41307765274513)"><path class="outline" fill="#A5ABB6" stroke="none" d="M 32.5 0.5 L 64.73561663921102 0.5 L 64.73561663921102 -0.5 L 32.5 -0.5 Z M 125.86061663921102 0.5 L 158.09623327842203 0.5 L 158.09623327842203 3.5 L 165.09623327842203 0 L 158.09623327842203 -3.5 L 158.09623327842203 -0.5 L 125.86061663921102 -0.5 Z"/><text text-anchor="middle" pointer-events="none" font-size="8px" fill="#000000" x="95.29811663921102" y="3" transform="rotate(180 95.29811663921102 0)" font-family="sans-serif">DEPENDS_ON</text></g><g class="relationship" transform="translate(-297.90313821010193 -87.72099973353929) rotate(472.31581445784315)"><path class="outline" fill="#A5ABB6" stroke="none" d="M 32.5 0.5 L 83.56366317054948 0.5 L 83.56366317054948 -0.5 L 32.5 -0.5 Z M 144.6886631705495 0.5 L 195.75232634109895 0.5 L 195.75232634109895 3.5 L 202.75232634109895 0 L 195.75232634109895 -3.5 L 195.75232634109895 -0.5 L 144.6886631705495 -0.5 Z"/><text text-anchor="middle" pointer-events="none" font-size="8px" fill="#000000" x="114.12616317054948" y="3" transform="rotate(180 114.12616317054948 0)" font-family="sans-serif">DEPENDS_ON</text></g><g class="relationship" transform="translate(-297.90313821010193 -87.72099973353929) rotate(392.92893156140644)"><path class="outline" fill="#A5ABB6" stroke="none" d="M 32.5 0.5 L 183.62029174311954 0.5 L 183.62029174311954 -0.5 L 32.5 -0.5 Z M 244.74529174311954 0.5 L 395.8655834862391 0.5 L 395.8655834862391 3.5 L 402.8655834862391 0 L 395.8655834862391 -3.5 L 395.8655834862391 -0.5 L 244.74529174311954 -0.5 Z"/><text text-anchor="middle" pointer-events="none" font-size="8px" fill="#000000" x="214.18279174311954" y="3" font-family="sans-serif">DEPENDS_ON</text></g><g class="relationship" transform="translate(-387.23115574375987 129.91209134501295) rotate(362.3963830341337)"><path class="outline" fill="#A5ABB6" stroke="none" d="M 32.5 0.5 L 193.5115963152861 0.5 L 193.5115963152861 -0.5 L 32.5 -0.5 Z M 254.6365963152861 0.5 L 415.6481926305722 0.5 L 415.6481926305722 3.5 L 422.6481926305722 0 L 415.6481926305722 -3.5 L 415.6481926305722 -0.5 L 254.6365963152861 -0.5 Z"/><text text-anchor="middle" pointer-events="none" font-size="8px" fill="#000000" x="224.0740963152861" y="3" font-family="sans-serif">DEPENDS_ON</text></g><g class="relationship" transform="translate(-329.0698665046994 306.4866730433398) rotate(251.76881309528642)"><path class="outline" fill="#A5ABB6" stroke="none" d="M 32.5 0.5 L 58.89087334907319 0.5 L 58.89087334907319 -0.5 L 32.5 -0.5 Z M 120.01587334907319 0.5 L 146.40674669814638 0.5 L 146.40674669814638 3.5 L 153.40674669814638 0 L 146.40674669814638 -3.5 L 146.40674669814638 -0.5 L 120.01587334907319 -0.5 Z"/><text text-anchor="middle" pointer-events="none" font-size="8px" fill="#000000" x="89.45337334907319" y="3" transform="rotate(180 89.45337334907319 0)" font-family="sans-serif">DEPENDS_ON</text></g><g class="relationship" transform="translate(-329.0698665046994 306.4866730433398) rotate(274.52049847321666)"><path class="outline" fill="#A5ABB6" stroke="none" d="M 32.5 0.5 L 163.65640035398252 0.5 L 163.65640035398252 -0.5 L 32.5 -0.5 Z M 224.78140035398252 0.5 L 355.93780070796504 0.5 L 355.93780070796504 3.5 L 362.93780070796504 0 L 355.93780070796504 -3.5 L 355.93780070796504 -0.5 L 224.78140035398252 -0.5 Z"/><text text-anchor="middle" pointer-events="none" font-size="8px" fill="#000000" x="194.21890035398252" y="3" font-family="sans-serif">DEPENDS_ON</text></g><g class="relationship" transform="translate(-329.0698665046994 306.4866730433398) rotate(358.4498733005805)"><path class="outline" fill="#A5ABB6" stroke="none" d="M 32.5 0.5 L 232.44624293235836 0.5 L 232.44624293235836 -0.5 L 32.5 -0.5 Z M 293.57124293235836 0.5 L 493.5174858647167 0.5 L 493.5174858647167 3.5 L 500.5174858647167 0 L 493.5174858647167 -3.5 L 493.5174858647167 -0.5 L 293.57124293235836 -0.5 Z"/><text text-anchor="middle" pointer-events="none" font-size="8px" fill="#000000" x="263.00874293235836" y="3" font-family="sans-serif">DEPENDS_ON</text></g><g class="relationship" transform="translate(-329.0698665046994 306.4866730433398) rotate(338.3347075417839)"><path class="outline" fill="#A5ABB6" stroke="none" d="M 32.5 0.5 L 179.30498327901967 0.5 L 179.30498327901967 -0.5 L 32.5 -0.5 Z M 240.42998327901967 0.5 L 387.23496655803933 0.5 L 387.23496655803933 3.5 L 394.23496655803933 0 L 387.23496655803933 -3.5 L 387.23496655803933 -0.5 L 240.42998327901967 -0.5 Z"/><text text-anchor="middle" pointer-events="none" font-size="8px" fill="#000000" x="209.86748327901967" y="3" font-family="sans-serif">DEPENDS_ON</text></g><g class="relationship" transform="translate(-329.0698665046994 306.4866730433398) rotate(304.72307910167814)"><path class="outline" fill="#A5ABB6" stroke="none" d="M 32.5 0.5 L 104.81912685674689 0.5 L 104.81912685674689 -0.5 L 32.5 -0.5 Z M 165.9441268567469 0.5 L 238.26325371349378 0.5 L 238.26325371349378 3.5 L 245.26325371349378 0 L 238.26325371349378 -3.5 L 238.26325371349378 -0.5 L 165.9441268567469 -0.5 Z"/><text text-anchor="middle" pointer-events="none" font-size="8px" fill="#000000" x="135.3816268567469" y="3" font-family="sans-serif">DEPENDS_ON</text></g></g><g class="layer nodes"><g class="node" transform="translate(67.51899688106177,148.9430120420763)"><circle class="outline" cx="0" cy="0" r="32.5" fill="#4C8EDA" stroke="#2870c2" stroke-width="2px"/><text text-anchor="middle" pointer-events="none" font-family="sans-serif" dy="2.03125" font-size="32.5" fill="#FFFFFF"/><text text-anchor="middle" pointer-events="none" y="5" font-size="10px" fill="#FFFFFF" font-family="sans-serif"> magicli</text></g><g class="node" transform="translate(-172.83658361266689,354.2807448858948)"><circle class="outline" cx="0" cy="0" r="32.5" fill="#4C8EDA" stroke="#2870c2" stroke-width="2px"/><text text-anchor="middle" pointer-events="none" font-family="sans-serif" dy="2.03125" font-size="32.5" fill="#FFFFFF"/><text text-anchor="middle" pointer-events="none" y="5" font-size="10px" fill="#FFFFFF" font-family="sans-serif"> cliss</text></g><g class="node" transform="translate(-170.85296121963705,78.1889814309971)"><circle class="outline" cx="0" cy="0" r="32.5" fill="#4C8EDA" stroke="#2870c2" stroke-width="2px"/><text text-anchor="middle" pointer-events="none" font-family="sans-serif" dy="2.03125" font-size="32.5" fill="#FFFFFF"/><text text-anchor="middle" pointer-events="none" y="5" font-size="10px" fill="#FFFFFF" font-family="sans-serif"> inspect-par…</text></g><g class="node" transform="translate(239.47019373487734,116.98385686191631)"><circle class="outline" cx="0" cy="0" r="32.5" fill="#4C8EDA" stroke="#2870c2" stroke-width="2px"/><text text-anchor="middle" pointer-events="none" font-family="sans-serif" dy="2.03125" font-size="32.5" fill="#FFFFFF"/><text text-anchor="middle" pointer-events="none" y="5" font-size="10px" fill="#FFFFFF" font-family="sans-serif"> inspect-pro…</text></g><g class="node" transform="translate(2.4341039085387948,-88.80411445061347)"><circle class="outline" cx="0" cy="0" r="32.5" fill="#4C8EDA" stroke="#2870c2" stroke-width="2px"/><text text-anchor="middle" pointer-events="none" font-family="sans-serif" dy="2.03125" font-size="32.5" fill="#FFFFFF"/><text text-anchor="middle" pointer-events="none" y="5" font-size="10px" fill="#FFFFFF" font-family="sans-serif"> inspect-func…</text></g><g class="node" transform="translate(203.7525567196792,292.0677428873024)"><circle class="outline" cx="0" cy="0" r="32.5" fill="#4C8EDA" stroke="#2870c2" stroke-width="2px"/><text text-anchor="middle" pointer-events="none" font-family="sans-serif" dy="2.03125" font-size="32.5" fill="#FFFFFF"/><text text-anchor="middle" pointer-events="none" y="5" font-size="10px" fill="#FFFFFF" font-family="sans-serif"> split-skip</text></g><g class="node" transform="translate(-297.90313821010193,-87.72099973353929)"><circle class="outline" cx="0" cy="0" r="32.5" fill="#4C8EDA" stroke="#2870c2" stroke-width="2px"/><text text-anchor="middle" pointer-events="none" font-family="sans-serif" dy="2.03125" font-size="32.5" fill="#FFFFFF"/><text text-anchor="middle" pointer-events="none" y="5" font-size="10px" fill="#FFFFFF" font-family="sans-serif"> stringify-par…</text></g><g class="node" transform="translate(-387.23115574375987,129.91209134501295)"><circle class="outline" cx="0" cy="0" r="32.5" fill="#4C8EDA" stroke="#2870c2" stroke-width="2px"/><text text-anchor="middle" pointer-events="none" font-family="sans-serif" dy="2.03125" font-size="32.5" fill="#FFFFFF"/><text text-anchor="middle" pointer-events="none" y="5" font-size="10px" fill="#FFFFFF" font-family="sans-serif"> unpack-string</text></g><g class="node" transform="translate(-329.0698665046994,306.4866730433398)"><circle class="outline" cx="0" cy="0" r="32.5" fill="#4C8EDA" stroke="#2870c2" stroke-width="2px"/><text text-anchor="middle" pointer-events="none" font-family="sans-serif" dy="2.03125" font-size="32.5" fill="#FFFFFF"/><text text-anchor="middle" pointer-events="none" y="5" font-size="10px" fill="#FFFFFF" font-family="sans-serif"> object-to-ar…</text></g></g></svg>