<?xml version="1.0" encoding="utf-8" standalone="no"?>
<!DOCTYPE svg PUBLIC "-//W3C//DTD SVG 1.1//EN"
  "http://www.w3.org/Graphics/SVG/1.1/DTD/svg11.dtd">
<!-- Created with matplotlib (https://matplotlib.org/) -->
<svg height="720pt" version="1.1" viewBox="0 0 1440 720" width="1440pt" xmlns="http://www.w3.org/2000/svg" xmlns:xlink="http://www.w3.org/1999/xlink">
 <defs>
  <style type="text/css">
*{stroke-linecap:butt;stroke-linejoin:round;}
  </style>
 </defs>
 <g id="figure_1">
  <g id="patch_1">
   <path d="M 0 720 
L 1440 720 
L 1440 0 
L 0 0 
z
" style="fill:#ffffff;"/>
  </g>
  <g id="axes_1">
   <g id="patch_2">
    <path d="M 180 630 
L 1296 630 
L 1296 86.4 
L 180 86.4 
z
" style="fill:#ffffff;"/>
   </g>
   <g id="patch_3">
    <path clip-path="url(#pe26f258846)" d="M 230.727273 630 
L 234.785455 630 
L 234.785455 112.285714 
L 230.727273 112.285714 
z
" style="fill:#1f77b4;"/>
   </g>
   <g id="patch_4">
    <path clip-path="url(#pe26f258846)" d="M 234.785455 630 
L 238.843636 630 
L 238.843636 612.158689 
L 234.785455 612.158689 
z
" style="fill:#1f77b4;"/>
   </g>
   <g id="patch_5">
    <path clip-path="url(#pe26f258846)" d="M 238.843636 630 
L 242.901818 630 
L 242.901818 624.307152 
L 238.843636 624.307152 
z
" style="fill:#1f77b4;"/>
   </g>
   <g id="patch_6">
    <path clip-path="url(#pe26f258846)" d="M 242.901818 630 
L 246.96 630 
L 246.96 626.874515 
L 242.901818 626.874515 
z
" style="fill:#1f77b4;"/>
   </g>
   <g id="patch_7">
    <path clip-path="url(#pe26f258846)" d="M 246.96 630 
L 251.018182 630 
L 251.018182 628.027968 
L 246.96 628.027968 
z
" style="fill:#1f77b4;"/>
   </g>
   <g id="patch_8">
    <path clip-path="url(#pe26f258846)" d="M 251.018182 630 
L 255.076364 630 
L 255.076364 628.790735 
L 251.018182 628.790735 
z
" style="fill:#1f77b4;"/>
   </g>
   <g id="patch_9">
    <path clip-path="url(#pe26f258846)" d="M 255.076364 630 
L 259.134545 630 
L 259.134545 629.162816 
L 255.076364 629.162816 
z
" style="fill:#1f77b4;"/>
   </g>
   <g id="patch_10">
    <path clip-path="url(#pe26f258846)" d="M 259.134545 630 
L 263.192727 630 
L 263.192727 629.200025 
L 259.134545 629.200025 
z
" style="fill:#1f77b4;"/>
   </g>
   <g id="patch_11">
    <path clip-path="url(#pe26f258846)" d="M 263.192727 630 
L 267.250909 630 
L 267.250909 629.572106 
L 263.192727 629.572106 
z
" style="fill:#1f77b4;"/>
   </g>
   <g id="patch_12">
    <path clip-path="url(#pe26f258846)" d="M 267.250909 630 
L 271.309091 630 
L 271.309091 629.441878 
L 267.250909 629.441878 
z
" style="fill:#1f77b4;"/>
   </g>
   <g id="patch_13">
    <path clip-path="url(#pe26f258846)" d="M 271.309091 630 
L 275.367273 630 
L 275.367273 629.572106 
L 271.309091 629.572106 
z
" style="fill:#1f77b4;"/>
   </g>
   <g id="patch_14">
    <path clip-path="url(#pe26f258846)" d="M 275.367273 630 
L 279.425455 630 
L 279.425455 629.795355 
L 275.367273 629.795355 
z
" style="fill:#1f77b4;"/>
   </g>
   <g id="patch_15">
    <path clip-path="url(#pe26f258846)" d="M 279.425455 630 
L 283.483636 630 
L 283.483636 629.795355 
L 279.425455 629.795355 
z
" style="fill:#1f77b4;"/>
   </g>
   <g id="patch_16">
    <path clip-path="url(#pe26f258846)" d="M 283.483636 630 
L 287.541818 630 
L 287.541818 629.90698 
L 283.483636 629.90698 
z
" style="fill:#1f77b4;"/>
   </g>
   <g id="patch_17">
    <path clip-path="url(#pe26f258846)" d="M 287.541818 630 
L 291.6 630 
L 291.6 629.869771 
L 287.541818 629.869771 
z
" style="fill:#1f77b4;"/>
   </g>
   <g id="patch_18">
    <path clip-path="url(#pe26f258846)" d="M 291.6 630 
L 295.658182 630 
L 295.658182 629.869771 
L 291.6 629.869771 
z
" style="fill:#1f77b4;"/>
   </g>
   <g id="patch_19">
    <path clip-path="url(#pe26f258846)" d="M 295.658182 630 
L 299.716364 630 
L 299.716364 629.832563 
L 295.658182 629.832563 
z
" style="fill:#1f77b4;"/>
   </g>
   <g id="patch_20">
    <path clip-path="url(#pe26f258846)" d="M 299.716364 630 
L 303.774545 630 
L 303.774545 629.925584 
L 299.716364 629.925584 
z
" style="fill:#1f77b4;"/>
   </g>
   <g id="patch_21">
    <path clip-path="url(#pe26f258846)" d="M 303.774545 630 
L 307.832727 630 
L 307.832727 629.962792 
L 303.774545 629.962792 
z
" style="fill:#1f77b4;"/>
   </g>
   <g id="patch_22">
    <path clip-path="url(#pe26f258846)" d="M 307.832727 630 
L 311.890909 630 
L 311.890909 629.962792 
L 307.832727 629.962792 
z
" style="fill:#1f77b4;"/>
   </g>
   <g id="patch_23">
    <path clip-path="url(#pe26f258846)" d="M 311.890909 630 
L 315.949091 630 
L 315.949091 629.944188 
L 311.890909 629.944188 
z
" style="fill:#1f77b4;"/>
   </g>
   <g id="patch_24">
    <path clip-path="url(#pe26f258846)" d="M 315.949091 630 
L 320.007273 630 
L 320.007273 629.981396 
L 315.949091 629.981396 
z
" style="fill:#1f77b4;"/>
   </g>
   <g id="patch_25">
    <path clip-path="url(#pe26f258846)" d="M 320.007273 630 
L 324.065455 630 
L 324.065455 629.925584 
L 320.007273 629.925584 
z
" style="fill:#1f77b4;"/>
   </g>
   <g id="patch_26">
    <path clip-path="url(#pe26f258846)" d="M 324.065455 630 
L 328.123636 630 
L 328.123636 629.944188 
L 324.065455 629.944188 
z
" style="fill:#1f77b4;"/>
   </g>
   <g id="patch_27">
    <path clip-path="url(#pe26f258846)" d="M 328.123636 630 
L 332.181818 630 
L 332.181818 629.962792 
L 328.123636 629.962792 
z
" style="fill:#1f77b4;"/>
   </g>
   <g id="patch_28">
    <path clip-path="url(#pe26f258846)" d="M 332.181818 630 
L 336.24 630 
L 336.24 629.944188 
L 332.181818 629.944188 
z
" style="fill:#1f77b4;"/>
   </g>
   <g id="patch_29">
    <path clip-path="url(#pe26f258846)" d="M 336.24 630 
L 340.298182 630 
L 340.298182 629.981396 
L 336.24 629.981396 
z
" style="fill:#1f77b4;"/>
   </g>
   <g id="patch_30">
    <path clip-path="url(#pe26f258846)" d="M 340.298182 630 
L 344.356364 630 
L 344.356364 630 
L 340.298182 630 
z
" style="fill:#1f77b4;"/>
   </g>
   <g id="patch_31">
    <path clip-path="url(#pe26f258846)" d="M 344.356364 630 
L 348.414545 630 
L 348.414545 630 
L 344.356364 630 
z
" style="fill:#1f77b4;"/>
   </g>
   <g id="patch_32">
    <path clip-path="url(#pe26f258846)" d="M 348.414545 630 
L 352.472727 630 
L 352.472727 629.962792 
L 348.414545 629.962792 
z
" style="fill:#1f77b4;"/>
   </g>
   <g id="patch_33">
    <path clip-path="url(#pe26f258846)" d="M 352.472727 630 
L 356.530909 630 
L 356.530909 630 
L 352.472727 630 
z
" style="fill:#1f77b4;"/>
   </g>
   <g id="patch_34">
    <path clip-path="url(#pe26f258846)" d="M 356.530909 630 
L 360.589091 630 
L 360.589091 629.962792 
L 356.530909 629.962792 
z
" style="fill:#1f77b4;"/>
   </g>
   <g id="patch_35">
    <path clip-path="url(#pe26f258846)" d="M 360.589091 630 
L 364.647273 630 
L 364.647273 629.944188 
L 360.589091 629.944188 
z
" style="fill:#1f77b4;"/>
   </g>
   <g id="patch_36">
    <path clip-path="url(#pe26f258846)" d="M 364.647273 630 
L 368.705455 630 
L 368.705455 629.90698 
L 364.647273 629.90698 
z
" style="fill:#1f77b4;"/>
   </g>
   <g id="patch_37">
    <path clip-path="url(#pe26f258846)" d="M 368.705455 630 
L 372.763636 630 
L 372.763636 630 
L 368.705455 630 
z
" style="fill:#1f77b4;"/>
   </g>
   <g id="patch_38">
    <path clip-path="url(#pe26f258846)" d="M 372.763636 630 
L 376.821818 630 
L 376.821818 630 
L 372.763636 630 
z
" style="fill:#1f77b4;"/>
   </g>
   <g id="patch_39">
    <path clip-path="url(#pe26f258846)" d="M 376.821818 630 
L 380.88 630 
L 380.88 629.981396 
L 376.821818 629.981396 
z
" style="fill:#1f77b4;"/>
   </g>
   <g id="patch_40">
    <path clip-path="url(#pe26f258846)" d="M 380.88 630 
L 384.938182 630 
L 384.938182 630 
L 380.88 630 
z
" style="fill:#1f77b4;"/>
   </g>
   <g id="patch_41">
    <path clip-path="url(#pe26f258846)" d="M 384.938182 630 
L 388.996364 630 
L 388.996364 630 
L 384.938182 630 
z
" style="fill:#1f77b4;"/>
   </g>
   <g id="patch_42">
    <path clip-path="url(#pe26f258846)" d="M 388.996364 630 
L 393.054545 630 
L 393.054545 629.962792 
L 388.996364 629.962792 
z
" style="fill:#1f77b4;"/>
   </g>
   <g id="patch_43">
    <path clip-path="url(#pe26f258846)" d="M 393.054545 630 
L 397.112727 630 
L 397.112727 630 
L 393.054545 630 
z
" style="fill:#1f77b4;"/>
   </g>
   <g id="patch_44">
    <path clip-path="url(#pe26f258846)" d="M 397.112727 630 
L 401.170909 630 
L 401.170909 629.981396 
L 397.112727 629.981396 
z
" style="fill:#1f77b4;"/>
   </g>
   <g id="patch_45">
    <path clip-path="url(#pe26f258846)" d="M 401.170909 630 
L 405.229091 630 
L 405.229091 629.962792 
L 401.170909 629.962792 
z
" style="fill:#1f77b4;"/>
   </g>
   <g id="patch_46">
    <path clip-path="url(#pe26f258846)" d="M 405.229091 630 
L 409.287273 630 
L 409.287273 629.981396 
L 405.229091 629.981396 
z
" style="fill:#1f77b4;"/>
   </g>
   <g id="patch_47">
    <path clip-path="url(#pe26f258846)" d="M 409.287273 630 
L 413.345455 630 
L 413.345455 629.981396 
L 409.287273 629.981396 
z
" style="fill:#1f77b4;"/>
   </g>
   <g id="patch_48">
    <path clip-path="url(#pe26f258846)" d="M 413.345455 630 
L 417.403636 630 
L 417.403636 630 
L 413.345455 630 
z
" style="fill:#1f77b4;"/>
   </g>
   <g id="patch_49">
    <path clip-path="url(#pe26f258846)" d="M 417.403636 630 
L 421.461818 630 
L 421.461818 630 
L 417.403636 630 
z
" style="fill:#1f77b4;"/>
   </g>
   <g id="patch_50">
    <path clip-path="url(#pe26f258846)" d="M 421.461818 630 
L 425.52 630 
L 425.52 629.962792 
L 421.461818 629.962792 
z
" style="fill:#1f77b4;"/>
   </g>
   <g id="patch_51">
    <path clip-path="url(#pe26f258846)" d="M 425.52 630 
L 429.578182 630 
L 429.578182 630 
L 425.52 630 
z
" style="fill:#1f77b4;"/>
   </g>
   <g id="patch_52">
    <path clip-path="url(#pe26f258846)" d="M 429.578182 630 
L 433.636364 630 
L 433.636364 630 
L 429.578182 630 
z
" style="fill:#1f77b4;"/>
   </g>
   <g id="patch_53">
    <path clip-path="url(#pe26f258846)" d="M 433.636364 630 
L 437.694545 630 
L 437.694545 629.981396 
L 433.636364 629.981396 
z
" style="fill:#1f77b4;"/>
   </g>
   <g id="patch_54">
    <path clip-path="url(#pe26f258846)" d="M 437.694545 630 
L 441.752727 630 
L 441.752727 630 
L 437.694545 630 
z
" style="fill:#1f77b4;"/>
   </g>
   <g id="patch_55">
    <path clip-path="url(#pe26f258846)" d="M 441.752727 630 
L 445.810909 630 
L 445.810909 629.981396 
L 441.752727 629.981396 
z
" style="fill:#1f77b4;"/>
   </g>
   <g id="patch_56">
    <path clip-path="url(#pe26f258846)" d="M 445.810909 630 
L 449.869091 630 
L 449.869091 630 
L 445.810909 630 
z
" style="fill:#1f77b4;"/>
   </g>
   <g id="patch_57">
    <path clip-path="url(#pe26f258846)" d="M 449.869091 630 
L 453.927273 630 
L 453.927273 630 
L 449.869091 630 
z
" style="fill:#1f77b4;"/>
   </g>
   <g id="patch_58">
    <path clip-path="url(#pe26f258846)" d="M 453.927273 630 
L 457.985455 630 
L 457.985455 630 
L 453.927273 630 
z
" style="fill:#1f77b4;"/>
   </g>
   <g id="patch_59">
    <path clip-path="url(#pe26f258846)" d="M 457.985455 630 
L 462.043636 630 
L 462.043636 630 
L 457.985455 630 
z
" style="fill:#1f77b4;"/>
   </g>
   <g id="patch_60">
    <path clip-path="url(#pe26f258846)" d="M 462.043636 630 
L 466.101818 630 
L 466.101818 629.981396 
L 462.043636 629.981396 
z
" style="fill:#1f77b4;"/>
   </g>
   <g id="patch_61">
    <path clip-path="url(#pe26f258846)" d="M 466.101818 630 
L 470.16 630 
L 470.16 629.981396 
L 466.101818 629.981396 
z
" style="fill:#1f77b4;"/>
   </g>
   <g id="patch_62">
    <path clip-path="url(#pe26f258846)" d="M 470.16 630 
L 474.218182 630 
L 474.218182 630 
L 470.16 630 
z
" style="fill:#1f77b4;"/>
   </g>
   <g id="patch_63">
    <path clip-path="url(#pe26f258846)" d="M 474.218182 630 
L 478.276364 630 
L 478.276364 630 
L 474.218182 630 
z
" style="fill:#1f77b4;"/>
   </g>
   <g id="patch_64">
    <path clip-path="url(#pe26f258846)" d="M 478.276364 630 
L 482.334545 630 
L 482.334545 630 
L 478.276364 630 
z
" style="fill:#1f77b4;"/>
   </g>
   <g id="patch_65">
    <path clip-path="url(#pe26f258846)" d="M 482.334545 630 
L 486.392727 630 
L 486.392727 630 
L 482.334545 630 
z
" style="fill:#1f77b4;"/>
   </g>
   <g id="patch_66">
    <path clip-path="url(#pe26f258846)" d="M 486.392727 630 
L 490.450909 630 
L 490.450909 630 
L 486.392727 630 
z
" style="fill:#1f77b4;"/>
   </g>
   <g id="patch_67">
    <path clip-path="url(#pe26f258846)" d="M 490.450909 630 
L 494.509091 630 
L 494.509091 629.981396 
L 490.450909 629.981396 
z
" style="fill:#1f77b4;"/>
   </g>
   <g id="patch_68">
    <path clip-path="url(#pe26f258846)" d="M 494.509091 630 
L 498.567273 630 
L 498.567273 630 
L 494.509091 630 
z
" style="fill:#1f77b4;"/>
   </g>
   <g id="patch_69">
    <path clip-path="url(#pe26f258846)" d="M 498.567273 630 
L 502.625455 630 
L 502.625455 630 
L 498.567273 630 
z
" style="fill:#1f77b4;"/>
   </g>
   <g id="patch_70">
    <path clip-path="url(#pe26f258846)" d="M 502.625455 630 
L 506.683636 630 
L 506.683636 630 
L 502.625455 630 
z
" style="fill:#1f77b4;"/>
   </g>
   <g id="patch_71">
    <path clip-path="url(#pe26f258846)" d="M 506.683636 630 
L 510.741818 630 
L 510.741818 629.981396 
L 506.683636 629.981396 
z
" style="fill:#1f77b4;"/>
   </g>
   <g id="patch_72">
    <path clip-path="url(#pe26f258846)" d="M 510.741818 630 
L 514.8 630 
L 514.8 630 
L 510.741818 630 
z
" style="fill:#1f77b4;"/>
   </g>
   <g id="patch_73">
    <path clip-path="url(#pe26f258846)" d="M 514.8 630 
L 518.858182 630 
L 518.858182 630 
L 514.8 630 
z
" style="fill:#1f77b4;"/>
   </g>
   <g id="patch_74">
    <path clip-path="url(#pe26f258846)" d="M 518.858182 630 
L 522.916364 630 
L 522.916364 630 
L 518.858182 630 
z
" style="fill:#1f77b4;"/>
   </g>
   <g id="patch_75">
    <path clip-path="url(#pe26f258846)" d="M 522.916364 630 
L 526.974545 630 
L 526.974545 630 
L 522.916364 630 
z
" style="fill:#1f77b4;"/>
   </g>
   <g id="patch_76">
    <path clip-path="url(#pe26f258846)" d="M 526.974545 630 
L 531.032727 630 
L 531.032727 630 
L 526.974545 630 
z
" style="fill:#1f77b4;"/>
   </g>
   <g id="patch_77">
    <path clip-path="url(#pe26f258846)" d="M 531.032727 630 
L 535.090909 630 
L 535.090909 630 
L 531.032727 630 
z
" style="fill:#1f77b4;"/>
   </g>
   <g id="patch_78">
    <path clip-path="url(#pe26f258846)" d="M 535.090909 630 
L 539.149091 630 
L 539.149091 630 
L 535.090909 630 
z
" style="fill:#1f77b4;"/>
   </g>
   <g id="patch_79">
    <path clip-path="url(#pe26f258846)" d="M 539.149091 630 
L 543.207273 630 
L 543.207273 630 
L 539.149091 630 
z
" style="fill:#1f77b4;"/>
   </g>
   <g id="patch_80">
    <path clip-path="url(#pe26f258846)" d="M 543.207273 630 
L 547.265455 630 
L 547.265455 630 
L 543.207273 630 
z
" style="fill:#1f77b4;"/>
   </g>
   <g id="patch_81">
    <path clip-path="url(#pe26f258846)" d="M 547.265455 630 
L 551.323636 630 
L 551.323636 630 
L 547.265455 630 
z
" style="fill:#1f77b4;"/>
   </g>
   <g id="patch_82">
    <path clip-path="url(#pe26f258846)" d="M 551.323636 630 
L 555.381818 630 
L 555.381818 629.962792 
L 551.323636 629.962792 
z
" style="fill:#1f77b4;"/>
   </g>
   <g id="patch_83">
    <path clip-path="url(#pe26f258846)" d="M 555.381818 630 
L 559.44 630 
L 559.44 629.981396 
L 555.381818 629.981396 
z
" style="fill:#1f77b4;"/>
   </g>
   <g id="patch_84">
    <path clip-path="url(#pe26f258846)" d="M 559.44 630 
L 563.498182 630 
L 563.498182 630 
L 559.44 630 
z
" style="fill:#1f77b4;"/>
   </g>
   <g id="patch_85">
    <path clip-path="url(#pe26f258846)" d="M 563.498182 630 
L 567.556364 630 
L 567.556364 629.981396 
L 563.498182 629.981396 
z
" style="fill:#1f77b4;"/>
   </g>
   <g id="patch_86">
    <path clip-path="url(#pe26f258846)" d="M 567.556364 630 
L 571.614545 630 
L 571.614545 630 
L 567.556364 630 
z
" style="fill:#1f77b4;"/>
   </g>
   <g id="patch_87">
    <path clip-path="url(#pe26f258846)" d="M 571.614545 630 
L 575.672727 630 
L 575.672727 630 
L 571.614545 630 
z
" style="fill:#1f77b4;"/>
   </g>
   <g id="patch_88">
    <path clip-path="url(#pe26f258846)" d="M 575.672727 630 
L 579.730909 630 
L 579.730909 629.981396 
L 575.672727 629.981396 
z
" style="fill:#1f77b4;"/>
   </g>
   <g id="patch_89">
    <path clip-path="url(#pe26f258846)" d="M 579.730909 630 
L 583.789091 630 
L 583.789091 630 
L 579.730909 630 
z
" style="fill:#1f77b4;"/>
   </g>
   <g id="patch_90">
    <path clip-path="url(#pe26f258846)" d="M 583.789091 630 
L 587.847273 630 
L 587.847273 629.981396 
L 583.789091 629.981396 
z
" style="fill:#1f77b4;"/>
   </g>
   <g id="patch_91">
    <path clip-path="url(#pe26f258846)" d="M 587.847273 630 
L 591.905455 630 
L 591.905455 629.981396 
L 587.847273 629.981396 
z
" style="fill:#1f77b4;"/>
   </g>
   <g id="patch_92">
    <path clip-path="url(#pe26f258846)" d="M 591.905455 630 
L 595.963636 630 
L 595.963636 630 
L 591.905455 630 
z
" style="fill:#1f77b4;"/>
   </g>
   <g id="patch_93">
    <path clip-path="url(#pe26f258846)" d="M 595.963636 630 
L 600.021818 630 
L 600.021818 630 
L 595.963636 630 
z
" style="fill:#1f77b4;"/>
   </g>
   <g id="patch_94">
    <path clip-path="url(#pe26f258846)" d="M 600.021818 630 
L 604.08 630 
L 604.08 630 
L 600.021818 630 
z
" style="fill:#1f77b4;"/>
   </g>
   <g id="patch_95">
    <path clip-path="url(#pe26f258846)" d="M 604.08 630 
L 608.138182 630 
L 608.138182 630 
L 604.08 630 
z
" style="fill:#1f77b4;"/>
   </g>
   <g id="patch_96">
    <path clip-path="url(#pe26f258846)" d="M 608.138182 630 
L 612.196364 630 
L 612.196364 629.981396 
L 608.138182 629.981396 
z
" style="fill:#1f77b4;"/>
   </g>
   <g id="patch_97">
    <path clip-path="url(#pe26f258846)" d="M 612.196364 630 
L 616.254545 630 
L 616.254545 630 
L 612.196364 630 
z
" style="fill:#1f77b4;"/>
   </g>
   <g id="patch_98">
    <path clip-path="url(#pe26f258846)" d="M 616.254545 630 
L 620.312727 630 
L 620.312727 630 
L 616.254545 630 
z
" style="fill:#1f77b4;"/>
   </g>
   <g id="patch_99">
    <path clip-path="url(#pe26f258846)" d="M 620.312727 630 
L 624.370909 630 
L 624.370909 630 
L 620.312727 630 
z
" style="fill:#1f77b4;"/>
   </g>
   <g id="patch_100">
    <path clip-path="url(#pe26f258846)" d="M 624.370909 630 
L 628.429091 630 
L 628.429091 630 
L 624.370909 630 
z
" style="fill:#1f77b4;"/>
   </g>
   <g id="patch_101">
    <path clip-path="url(#pe26f258846)" d="M 628.429091 630 
L 632.487273 630 
L 632.487273 630 
L 628.429091 630 
z
" style="fill:#1f77b4;"/>
   </g>
   <g id="patch_102">
    <path clip-path="url(#pe26f258846)" d="M 632.487273 630 
L 636.545455 630 
L 636.545455 630 
L 632.487273 630 
z
" style="fill:#1f77b4;"/>
   </g>
   <g id="patch_103">
    <path clip-path="url(#pe26f258846)" d="M 636.545455 630 
L 640.603636 630 
L 640.603636 630 
L 636.545455 630 
z
" style="fill:#1f77b4;"/>
   </g>
   <g id="patch_104">
    <path clip-path="url(#pe26f258846)" d="M 640.603636 630 
L 644.661818 630 
L 644.661818 630 
L 640.603636 630 
z
" style="fill:#1f77b4;"/>
   </g>
   <g id="patch_105">
    <path clip-path="url(#pe26f258846)" d="M 644.661818 630 
L 648.72 630 
L 648.72 630 
L 644.661818 630 
z
" style="fill:#1f77b4;"/>
   </g>
   <g id="patch_106">
    <path clip-path="url(#pe26f258846)" d="M 648.72 630 
L 652.778182 630 
L 652.778182 630 
L 648.72 630 
z
" style="fill:#1f77b4;"/>
   </g>
   <g id="patch_107">
    <path clip-path="url(#pe26f258846)" d="M 652.778182 630 
L 656.836364 630 
L 656.836364 630 
L 652.778182 630 
z
" style="fill:#1f77b4;"/>
   </g>
   <g id="patch_108">
    <path clip-path="url(#pe26f258846)" d="M 656.836364 630 
L 660.894545 630 
L 660.894545 630 
L 656.836364 630 
z
" style="fill:#1f77b4;"/>
   </g>
   <g id="patch_109">
    <path clip-path="url(#pe26f258846)" d="M 660.894545 630 
L 664.952727 630 
L 664.952727 630 
L 660.894545 630 
z
" style="fill:#1f77b4;"/>
   </g>
   <g id="patch_110">
    <path clip-path="url(#pe26f258846)" d="M 664.952727 630 
L 669.010909 630 
L 669.010909 630 
L 664.952727 630 
z
" style="fill:#1f77b4;"/>
   </g>
   <g id="patch_111">
    <path clip-path="url(#pe26f258846)" d="M 669.010909 630 
L 673.069091 630 
L 673.069091 630 
L 669.010909 630 
z
" style="fill:#1f77b4;"/>
   </g>
   <g id="patch_112">
    <path clip-path="url(#pe26f258846)" d="M 673.069091 630 
L 677.127273 630 
L 677.127273 630 
L 673.069091 630 
z
" style="fill:#1f77b4;"/>
   </g>
   <g id="patch_113">
    <path clip-path="url(#pe26f258846)" d="M 677.127273 630 
L 681.185455 630 
L 681.185455 629.981396 
L 677.127273 629.981396 
z
" style="fill:#1f77b4;"/>
   </g>
   <g id="patch_114">
    <path clip-path="url(#pe26f258846)" d="M 681.185455 630 
L 685.243636 630 
L 685.243636 630 
L 681.185455 630 
z
" style="fill:#1f77b4;"/>
   </g>
   <g id="patch_115">
    <path clip-path="url(#pe26f258846)" d="M 685.243636 630 
L 689.301818 630 
L 689.301818 630 
L 685.243636 630 
z
" style="fill:#1f77b4;"/>
   </g>
   <g id="patch_116">
    <path clip-path="url(#pe26f258846)" d="M 689.301818 630 
L 693.36 630 
L 693.36 630 
L 689.301818 630 
z
" style="fill:#1f77b4;"/>
   </g>
   <g id="patch_117">
    <path clip-path="url(#pe26f258846)" d="M 693.36 630 
L 697.418182 630 
L 697.418182 630 
L 693.36 630 
z
" style="fill:#1f77b4;"/>
   </g>
   <g id="patch_118">
    <path clip-path="url(#pe26f258846)" d="M 697.418182 630 
L 701.476364 630 
L 701.476364 630 
L 697.418182 630 
z
" style="fill:#1f77b4;"/>
   </g>
   <g id="patch_119">
    <path clip-path="url(#pe26f258846)" d="M 701.476364 630 
L 705.534545 630 
L 705.534545 630 
L 701.476364 630 
z
" style="fill:#1f77b4;"/>
   </g>
   <g id="patch_120">
    <path clip-path="url(#pe26f258846)" d="M 705.534545 630 
L 709.592727 630 
L 709.592727 630 
L 705.534545 630 
z
" style="fill:#1f77b4;"/>
   </g>
   <g id="patch_121">
    <path clip-path="url(#pe26f258846)" d="M 709.592727 630 
L 713.650909 630 
L 713.650909 630 
L 709.592727 630 
z
" style="fill:#1f77b4;"/>
   </g>
   <g id="patch_122">
    <path clip-path="url(#pe26f258846)" d="M 713.650909 630 
L 717.709091 630 
L 717.709091 630 
L 713.650909 630 
z
" style="fill:#1f77b4;"/>
   </g>
   <g id="patch_123">
    <path clip-path="url(#pe26f258846)" d="M 717.709091 630 
L 721.767273 630 
L 721.767273 630 
L 717.709091 630 
z
" style="fill:#1f77b4;"/>
   </g>
   <g id="patch_124">
    <path clip-path="url(#pe26f258846)" d="M 721.767273 630 
L 725.825455 630 
L 725.825455 630 
L 721.767273 630 
z
" style="fill:#1f77b4;"/>
   </g>
   <g id="patch_125">
    <path clip-path="url(#pe26f258846)" d="M 725.825455 630 
L 729.883636 630 
L 729.883636 630 
L 725.825455 630 
z
" style="fill:#1f77b4;"/>
   </g>
   <g id="patch_126">
    <path clip-path="url(#pe26f258846)" d="M 729.883636 630 
L 733.941818 630 
L 733.941818 630 
L 729.883636 630 
z
" style="fill:#1f77b4;"/>
   </g>
   <g id="patch_127">
    <path clip-path="url(#pe26f258846)" d="M 733.941818 630 
L 738 630 
L 738 630 
L 733.941818 630 
z
" style="fill:#1f77b4;"/>
   </g>
   <g id="patch_128">
    <path clip-path="url(#pe26f258846)" d="M 738 630 
L 742.058182 630 
L 742.058182 630 
L 738 630 
z
" style="fill:#1f77b4;"/>
   </g>
   <g id="patch_129">
    <path clip-path="url(#pe26f258846)" d="M 742.058182 630 
L 746.116364 630 
L 746.116364 630 
L 742.058182 630 
z
" style="fill:#1f77b4;"/>
   </g>
   <g id="patch_130">
    <path clip-path="url(#pe26f258846)" d="M 746.116364 630 
L 750.174545 630 
L 750.174545 630 
L 746.116364 630 
z
" style="fill:#1f77b4;"/>
   </g>
   <g id="patch_131">
    <path clip-path="url(#pe26f258846)" d="M 750.174545 630 
L 754.232727 630 
L 754.232727 630 
L 750.174545 630 
z
" style="fill:#1f77b4;"/>
   </g>
   <g id="patch_132">
    <path clip-path="url(#pe26f258846)" d="M 754.232727 630 
L 758.290909 630 
L 758.290909 630 
L 754.232727 630 
z
" style="fill:#1f77b4;"/>
   </g>
   <g id="patch_133">
    <path clip-path="url(#pe26f258846)" d="M 758.290909 630 
L 762.349091 630 
L 762.349091 630 
L 758.290909 630 
z
" style="fill:#1f77b4;"/>
   </g>
   <g id="patch_134">
    <path clip-path="url(#pe26f258846)" d="M 762.349091 630 
L 766.407273 630 
L 766.407273 630 
L 762.349091 630 
z
" style="fill:#1f77b4;"/>
   </g>
   <g id="patch_135">
    <path clip-path="url(#pe26f258846)" d="M 766.407273 630 
L 770.465455 630 
L 770.465455 630 
L 766.407273 630 
z
" style="fill:#1f77b4;"/>
   </g>
   <g id="patch_136">
    <path clip-path="url(#pe26f258846)" d="M 770.465455 630 
L 774.523636 630 
L 774.523636 630 
L 770.465455 630 
z
" style="fill:#1f77b4;"/>
   </g>
   <g id="patch_137">
    <path clip-path="url(#pe26f258846)" d="M 774.523636 630 
L 778.581818 630 
L 778.581818 630 
L 774.523636 630 
z
" style="fill:#1f77b4;"/>
   </g>
   <g id="patch_138">
    <path clip-path="url(#pe26f258846)" d="M 778.581818 630 
L 782.64 630 
L 782.64 630 
L 778.581818 630 
z
" style="fill:#1f77b4;"/>
   </g>
   <g id="patch_139">
    <path clip-path="url(#pe26f258846)" d="M 782.64 630 
L 786.698182 630 
L 786.698182 630 
L 782.64 630 
z
" style="fill:#1f77b4;"/>
   </g>
   <g id="patch_140">
    <path clip-path="url(#pe26f258846)" d="M 786.698182 630 
L 790.756364 630 
L 790.756364 630 
L 786.698182 630 
z
" style="fill:#1f77b4;"/>
   </g>
   <g id="patch_141">
    <path clip-path="url(#pe26f258846)" d="M 790.756364 630 
L 794.814545 630 
L 794.814545 630 
L 790.756364 630 
z
" style="fill:#1f77b4;"/>
   </g>
   <g id="patch_142">
    <path clip-path="url(#pe26f258846)" d="M 794.814545 630 
L 798.872727 630 
L 798.872727 630 
L 794.814545 630 
z
" style="fill:#1f77b4;"/>
   </g>
   <g id="patch_143">
    <path clip-path="url(#pe26f258846)" d="M 798.872727 630 
L 802.930909 630 
L 802.930909 630 
L 798.872727 630 
z
" style="fill:#1f77b4;"/>
   </g>
   <g id="patch_144">
    <path clip-path="url(#pe26f258846)" d="M 802.930909 630 
L 806.989091 630 
L 806.989091 630 
L 802.930909 630 
z
" style="fill:#1f77b4;"/>
   </g>
   <g id="patch_145">
    <path clip-path="url(#pe26f258846)" d="M 806.989091 630 
L 811.047273 630 
L 811.047273 629.981396 
L 806.989091 629.981396 
z
" style="fill:#1f77b4;"/>
   </g>
   <g id="patch_146">
    <path clip-path="url(#pe26f258846)" d="M 811.047273 630 
L 815.105455 630 
L 815.105455 630 
L 811.047273 630 
z
" style="fill:#1f77b4;"/>
   </g>
   <g id="patch_147">
    <path clip-path="url(#pe26f258846)" d="M 815.105455 630 
L 819.163636 630 
L 819.163636 630 
L 815.105455 630 
z
" style="fill:#1f77b4;"/>
   </g>
   <g id="patch_148">
    <path clip-path="url(#pe26f258846)" d="M 819.163636 630 
L 823.221818 630 
L 823.221818 630 
L 819.163636 630 
z
" style="fill:#1f77b4;"/>
   </g>
   <g id="patch_149">
    <path clip-path="url(#pe26f258846)" d="M 823.221818 630 
L 827.28 630 
L 827.28 630 
L 823.221818 630 
z
" style="fill:#1f77b4;"/>
   </g>
   <g id="patch_150">
    <path clip-path="url(#pe26f258846)" d="M 827.28 630 
L 831.338182 630 
L 831.338182 630 
L 827.28 630 
z
" style="fill:#1f77b4;"/>
   </g>
   <g id="patch_151">
    <path clip-path="url(#pe26f258846)" d="M 831.338182 630 
L 835.396364 630 
L 835.396364 630 
L 831.338182 630 
z
" style="fill:#1f77b4;"/>
   </g>
   <g id="patch_152">
    <path clip-path="url(#pe26f258846)" d="M 835.396364 630 
L 839.454545 630 
L 839.454545 630 
L 835.396364 630 
z
" style="fill:#1f77b4;"/>
   </g>
   <g id="patch_153">
    <path clip-path="url(#pe26f258846)" d="M 839.454545 630 
L 843.512727 630 
L 843.512727 630 
L 839.454545 630 
z
" style="fill:#1f77b4;"/>
   </g>
   <g id="patch_154">
    <path clip-path="url(#pe26f258846)" d="M 843.512727 630 
L 847.570909 630 
L 847.570909 630 
L 843.512727 630 
z
" style="fill:#1f77b4;"/>
   </g>
   <g id="patch_155">
    <path clip-path="url(#pe26f258846)" d="M 847.570909 630 
L 851.629091 630 
L 851.629091 630 
L 847.570909 630 
z
" style="fill:#1f77b4;"/>
   </g>
   <g id="patch_156">
    <path clip-path="url(#pe26f258846)" d="M 851.629091 630 
L 855.687273 630 
L 855.687273 630 
L 851.629091 630 
z
" style="fill:#1f77b4;"/>
   </g>
   <g id="patch_157">
    <path clip-path="url(#pe26f258846)" d="M 855.687273 630 
L 859.745455 630 
L 859.745455 630 
L 855.687273 630 
z
" style="fill:#1f77b4;"/>
   </g>
   <g id="patch_158">
    <path clip-path="url(#pe26f258846)" d="M 859.745455 630 
L 863.803636 630 
L 863.803636 630 
L 859.745455 630 
z
" style="fill:#1f77b4;"/>
   </g>
   <g id="patch_159">
    <path clip-path="url(#pe26f258846)" d="M 863.803636 630 
L 867.861818 630 
L 867.861818 630 
L 863.803636 630 
z
" style="fill:#1f77b4;"/>
   </g>
   <g id="patch_160">
    <path clip-path="url(#pe26f258846)" d="M 867.861818 630 
L 871.92 630 
L 871.92 630 
L 867.861818 630 
z
" style="fill:#1f77b4;"/>
   </g>
   <g id="patch_161">
    <path clip-path="url(#pe26f258846)" d="M 871.92 630 
L 875.978182 630 
L 875.978182 629.981396 
L 871.92 629.981396 
z
" style="fill:#1f77b4;"/>
   </g>
   <g id="patch_162">
    <path clip-path="url(#pe26f258846)" d="M 875.978182 630 
L 880.036364 630 
L 880.036364 630 
L 875.978182 630 
z
" style="fill:#1f77b4;"/>
   </g>
   <g id="patch_163">
    <path clip-path="url(#pe26f258846)" d="M 880.036364 630 
L 884.094545 630 
L 884.094545 630 
L 880.036364 630 
z
" style="fill:#1f77b4;"/>
   </g>
   <g id="patch_164">
    <path clip-path="url(#pe26f258846)" d="M 884.094545 630 
L 888.152727 630 
L 888.152727 630 
L 884.094545 630 
z
" style="fill:#1f77b4;"/>
   </g>
   <g id="patch_165">
    <path clip-path="url(#pe26f258846)" d="M 888.152727 630 
L 892.210909 630 
L 892.210909 630 
L 888.152727 630 
z
" style="fill:#1f77b4;"/>
   </g>
   <g id="patch_166">
    <path clip-path="url(#pe26f258846)" d="M 892.210909 630 
L 896.269091 630 
L 896.269091 630 
L 892.210909 630 
z
" style="fill:#1f77b4;"/>
   </g>
   <g id="patch_167">
    <path clip-path="url(#pe26f258846)" d="M 896.269091 630 
L 900.327273 630 
L 900.327273 630 
L 896.269091 630 
z
" style="fill:#1f77b4;"/>
   </g>
   <g id="patch_168">
    <path clip-path="url(#pe26f258846)" d="M 900.327273 630 
L 904.385455 630 
L 904.385455 630 
L 900.327273 630 
z
" style="fill:#1f77b4;"/>
   </g>
   <g id="patch_169">
    <path clip-path="url(#pe26f258846)" d="M 904.385455 630 
L 908.443636 630 
L 908.443636 630 
L 904.385455 630 
z
" style="fill:#1f77b4;"/>
   </g>
   <g id="patch_170">
    <path clip-path="url(#pe26f258846)" d="M 908.443636 630 
L 912.501818 630 
L 912.501818 630 
L 908.443636 630 
z
" style="fill:#1f77b4;"/>
   </g>
   <g id="patch_171">
    <path clip-path="url(#pe26f258846)" d="M 912.501818 630 
L 916.56 630 
L 916.56 630 
L 912.501818 630 
z
" style="fill:#1f77b4;"/>
   </g>
   <g id="patch_172">
    <path clip-path="url(#pe26f258846)" d="M 916.56 630 
L 920.618182 630 
L 920.618182 630 
L 916.56 630 
z
" style="fill:#1f77b4;"/>
   </g>
   <g id="patch_173">
    <path clip-path="url(#pe26f258846)" d="M 920.618182 630 
L 924.676364 630 
L 924.676364 630 
L 920.618182 630 
z
" style="fill:#1f77b4;"/>
   </g>
   <g id="patch_174">
    <path clip-path="url(#pe26f258846)" d="M 924.676364 630 
L 928.734545 630 
L 928.734545 630 
L 924.676364 630 
z
" style="fill:#1f77b4;"/>
   </g>
   <g id="patch_175">
    <path clip-path="url(#pe26f258846)" d="M 928.734545 630 
L 932.792727 630 
L 932.792727 630 
L 928.734545 630 
z
" style="fill:#1f77b4;"/>
   </g>
   <g id="patch_176">
    <path clip-path="url(#pe26f258846)" d="M 932.792727 630 
L 936.850909 630 
L 936.850909 630 
L 932.792727 630 
z
" style="fill:#1f77b4;"/>
   </g>
   <g id="patch_177">
    <path clip-path="url(#pe26f258846)" d="M 936.850909 630 
L 940.909091 630 
L 940.909091 630 
L 936.850909 630 
z
" style="fill:#1f77b4;"/>
   </g>
   <g id="patch_178">
    <path clip-path="url(#pe26f258846)" d="M 940.909091 630 
L 944.967273 630 
L 944.967273 630 
L 940.909091 630 
z
" style="fill:#1f77b4;"/>
   </g>
   <g id="patch_179">
    <path clip-path="url(#pe26f258846)" d="M 944.967273 630 
L 949.025455 630 
L 949.025455 630 
L 944.967273 630 
z
" style="fill:#1f77b4;"/>
   </g>
   <g id="patch_180">
    <path clip-path="url(#pe26f258846)" d="M 949.025455 630 
L 953.083636 630 
L 953.083636 630 
L 949.025455 630 
z
" style="fill:#1f77b4;"/>
   </g>
   <g id="patch_181">
    <path clip-path="url(#pe26f258846)" d="M 953.083636 630 
L 957.141818 630 
L 957.141818 630 
L 953.083636 630 
z
" style="fill:#1f77b4;"/>
   </g>
   <g id="patch_182">
    <path clip-path="url(#pe26f258846)" d="M 957.141818 630 
L 961.2 630 
L 961.2 630 
L 957.141818 630 
z
" style="fill:#1f77b4;"/>
   </g>
   <g id="patch_183">
    <path clip-path="url(#pe26f258846)" d="M 961.2 630 
L 965.258182 630 
L 965.258182 630 
L 961.2 630 
z
" style="fill:#1f77b4;"/>
   </g>
   <g id="patch_184">
    <path clip-path="url(#pe26f258846)" d="M 965.258182 630 
L 969.316364 630 
L 969.316364 630 
L 965.258182 630 
z
" style="fill:#1f77b4;"/>
   </g>
   <g id="patch_185">
    <path clip-path="url(#pe26f258846)" d="M 969.316364 630 
L 973.374545 630 
L 973.374545 630 
L 969.316364 630 
z
" style="fill:#1f77b4;"/>
   </g>
   <g id="patch_186">
    <path clip-path="url(#pe26f258846)" d="M 973.374545 630 
L 977.432727 630 
L 977.432727 630 
L 973.374545 630 
z
" style="fill:#1f77b4;"/>
   </g>
   <g id="patch_187">
    <path clip-path="url(#pe26f258846)" d="M 977.432727 630 
L 981.490909 630 
L 981.490909 630 
L 977.432727 630 
z
" style="fill:#1f77b4;"/>
   </g>
   <g id="patch_188">
    <path clip-path="url(#pe26f258846)" d="M 981.490909 630 
L 985.549091 630 
L 985.549091 630 
L 981.490909 630 
z
" style="fill:#1f77b4;"/>
   </g>
   <g id="patch_189">
    <path clip-path="url(#pe26f258846)" d="M 985.549091 630 
L 989.607273 630 
L 989.607273 630 
L 985.549091 630 
z
" style="fill:#1f77b4;"/>
   </g>
   <g id="patch_190">
    <path clip-path="url(#pe26f258846)" d="M 989.607273 630 
L 993.665455 630 
L 993.665455 630 
L 989.607273 630 
z
" style="fill:#1f77b4;"/>
   </g>
   <g id="patch_191">
    <path clip-path="url(#pe26f258846)" d="M 993.665455 630 
L 997.723636 630 
L 997.723636 630 
L 993.665455 630 
z
" style="fill:#1f77b4;"/>
   </g>
   <g id="patch_192">
    <path clip-path="url(#pe26f258846)" d="M 997.723636 630 
L 1001.781818 630 
L 1001.781818 630 
L 997.723636 630 
z
" style="fill:#1f77b4;"/>
   </g>
   <g id="patch_193">
    <path clip-path="url(#pe26f258846)" d="M 1001.781818 630 
L 1005.84 630 
L 1005.84 630 
L 1001.781818 630 
z
" style="fill:#1f77b4;"/>
   </g>
   <g id="patch_194">
    <path clip-path="url(#pe26f258846)" d="M 1005.84 630 
L 1009.898182 630 
L 1009.898182 630 
L 1005.84 630 
z
" style="fill:#1f77b4;"/>
   </g>
   <g id="patch_195">
    <path clip-path="url(#pe26f258846)" d="M 1009.898182 630 
L 1013.956364 630 
L 1013.956364 630 
L 1009.898182 630 
z
" style="fill:#1f77b4;"/>
   </g>
   <g id="patch_196">
    <path clip-path="url(#pe26f258846)" d="M 1013.956364 630 
L 1018.014545 630 
L 1018.014545 630 
L 1013.956364 630 
z
" style="fill:#1f77b4;"/>
   </g>
   <g id="patch_197">
    <path clip-path="url(#pe26f258846)" d="M 1018.014545 630 
L 1022.072727 630 
L 1022.072727 630 
L 1018.014545 630 
z
" style="fill:#1f77b4;"/>
   </g>
   <g id="patch_198">
    <path clip-path="url(#pe26f258846)" d="M 1022.072727 630 
L 1026.130909 630 
L 1026.130909 630 
L 1022.072727 630 
z
" style="fill:#1f77b4;"/>
   </g>
   <g id="patch_199">
    <path clip-path="url(#pe26f258846)" d="M 1026.130909 630 
L 1030.189091 630 
L 1030.189091 630 
L 1026.130909 630 
z
" style="fill:#1f77b4;"/>
   </g>
   <g id="patch_200">
    <path clip-path="url(#pe26f258846)" d="M 1030.189091 630 
L 1034.247273 630 
L 1034.247273 630 
L 1030.189091 630 
z
" style="fill:#1f77b4;"/>
   </g>
   <g id="patch_201">
    <path clip-path="url(#pe26f258846)" d="M 1034.247273 630 
L 1038.305455 630 
L 1038.305455 630 
L 1034.247273 630 
z
" style="fill:#1f77b4;"/>
   </g>
   <g id="patch_202">
    <path clip-path="url(#pe26f258846)" d="M 1038.305455 630 
L 1042.363636 630 
L 1042.363636 630 
L 1038.305455 630 
z
" style="fill:#1f77b4;"/>
   </g>
   <g id="patch_203">
    <path clip-path="url(#pe26f258846)" d="M 1042.363636 630 
L 1046.421818 630 
L 1046.421818 630 
L 1042.363636 630 
z
" style="fill:#1f77b4;"/>
   </g>
   <g id="patch_204">
    <path clip-path="url(#pe26f258846)" d="M 1046.421818 630 
L 1050.48 630 
L 1050.48 630 
L 1046.421818 630 
z
" style="fill:#1f77b4;"/>
   </g>
   <g id="patch_205">
    <path clip-path="url(#pe26f258846)" d="M 1050.48 630 
L 1054.538182 630 
L 1054.538182 630 
L 1050.48 630 
z
" style="fill:#1f77b4;"/>
   </g>
   <g id="patch_206">
    <path clip-path="url(#pe26f258846)" d="M 1054.538182 630 
L 1058.596364 630 
L 1058.596364 630 
L 1054.538182 630 
z
" style="fill:#1f77b4;"/>
   </g>
   <g id="patch_207">
    <path clip-path="url(#pe26f258846)" d="M 1058.596364 630 
L 1062.654545 630 
L 1062.654545 630 
L 1058.596364 630 
z
" style="fill:#1f77b4;"/>
   </g>
   <g id="patch_208">
    <path clip-path="url(#pe26f258846)" d="M 1062.654545 630 
L 1066.712727 630 
L 1066.712727 630 
L 1062.654545 630 
z
" style="fill:#1f77b4;"/>
   </g>
   <g id="patch_209">
    <path clip-path="url(#pe26f258846)" d="M 1066.712727 630 
L 1070.770909 630 
L 1070.770909 630 
L 1066.712727 630 
z
" style="fill:#1f77b4;"/>
   </g>
   <g id="patch_210">
    <path clip-path="url(#pe26f258846)" d="M 1070.770909 630 
L 1074.829091 630 
L 1074.829091 630 
L 1070.770909 630 
z
" style="fill:#1f77b4;"/>
   </g>
   <g id="patch_211">
    <path clip-path="url(#pe26f258846)" d="M 1074.829091 630 
L 1078.887273 630 
L 1078.887273 630 
L 1074.829091 630 
z
" style="fill:#1f77b4;"/>
   </g>
   <g id="patch_212">
    <path clip-path="url(#pe26f258846)" d="M 1078.887273 630 
L 1082.945455 630 
L 1082.945455 630 
L 1078.887273 630 
z
" style="fill:#1f77b4;"/>
   </g>
   <g id="patch_213">
    <path clip-path="url(#pe26f258846)" d="M 1082.945455 630 
L 1087.003636 630 
L 1087.003636 630 
L 1082.945455 630 
z
" style="fill:#1f77b4;"/>
   </g>
   <g id="patch_214">
    <path clip-path="url(#pe26f258846)" d="M 1087.003636 630 
L 1091.061818 630 
L 1091.061818 630 
L 1087.003636 630 
z
" style="fill:#1f77b4;"/>
   </g>
   <g id="patch_215">
    <path clip-path="url(#pe26f258846)" d="M 1091.061818 630 
L 1095.12 630 
L 1095.12 630 
L 1091.061818 630 
z
" style="fill:#1f77b4;"/>
   </g>
   <g id="patch_216">
    <path clip-path="url(#pe26f258846)" d="M 1095.12 630 
L 1099.178182 630 
L 1099.178182 630 
L 1095.12 630 
z
" style="fill:#1f77b4;"/>
   </g>
   <g id="patch_217">
    <path clip-path="url(#pe26f258846)" d="M 1099.178182 630 
L 1103.236364 630 
L 1103.236364 630 
L 1099.178182 630 
z
" style="fill:#1f77b4;"/>
   </g>
   <g id="patch_218">
    <path clip-path="url(#pe26f258846)" d="M 1103.236364 630 
L 1107.294545 630 
L 1107.294545 630 
L 1103.236364 630 
z
" style="fill:#1f77b4;"/>
   </g>
   <g id="patch_219">
    <path clip-path="url(#pe26f258846)" d="M 1107.294545 630 
L 1111.352727 630 
L 1111.352727 630 
L 1107.294545 630 
z
" style="fill:#1f77b4;"/>
   </g>
   <g id="patch_220">
    <path clip-path="url(#pe26f258846)" d="M 1111.352727 630 
L 1115.410909 630 
L 1115.410909 630 
L 1111.352727 630 
z
" style="fill:#1f77b4;"/>
   </g>
   <g id="patch_221">
    <path clip-path="url(#pe26f258846)" d="M 1115.410909 630 
L 1119.469091 630 
L 1119.469091 630 
L 1115.410909 630 
z
" style="fill:#1f77b4;"/>
   </g>
   <g id="patch_222">
    <path clip-path="url(#pe26f258846)" d="M 1119.469091 630 
L 1123.527273 630 
L 1123.527273 630 
L 1119.469091 630 
z
" style="fill:#1f77b4;"/>
   </g>
   <g id="patch_223">
    <path clip-path="url(#pe26f258846)" d="M 1123.527273 630 
L 1127.585455 630 
L 1127.585455 630 
L 1123.527273 630 
z
" style="fill:#1f77b4;"/>
   </g>
   <g id="patch_224">
    <path clip-path="url(#pe26f258846)" d="M 1127.585455 630 
L 1131.643636 630 
L 1131.643636 630 
L 1127.585455 630 
z
" style="fill:#1f77b4;"/>
   </g>
   <g id="patch_225">
    <path clip-path="url(#pe26f258846)" d="M 1131.643636 630 
L 1135.701818 630 
L 1135.701818 630 
L 1131.643636 630 
z
" style="fill:#1f77b4;"/>
   </g>
   <g id="patch_226">
    <path clip-path="url(#pe26f258846)" d="M 1135.701818 630 
L 1139.76 630 
L 1139.76 630 
L 1135.701818 630 
z
" style="fill:#1f77b4;"/>
   </g>
   <g id="patch_227">
    <path clip-path="url(#pe26f258846)" d="M 1139.76 630 
L 1143.818182 630 
L 1143.818182 630 
L 1139.76 630 
z
" style="fill:#1f77b4;"/>
   </g>
   <g id="patch_228">
    <path clip-path="url(#pe26f258846)" d="M 1143.818182 630 
L 1147.876364 630 
L 1147.876364 630 
L 1143.818182 630 
z
" style="fill:#1f77b4;"/>
   </g>
   <g id="patch_229">
    <path clip-path="url(#pe26f258846)" d="M 1147.876364 630 
L 1151.934545 630 
L 1151.934545 630 
L 1147.876364 630 
z
" style="fill:#1f77b4;"/>
   </g>
   <g id="patch_230">
    <path clip-path="url(#pe26f258846)" d="M 1151.934545 630 
L 1155.992727 630 
L 1155.992727 630 
L 1151.934545 630 
z
" style="fill:#1f77b4;"/>
   </g>
   <g id="patch_231">
    <path clip-path="url(#pe26f258846)" d="M 1155.992727 630 
L 1160.050909 630 
L 1160.050909 630 
L 1155.992727 630 
z
" style="fill:#1f77b4;"/>
   </g>
   <g id="patch_232">
    <path clip-path="url(#pe26f258846)" d="M 1160.050909 630 
L 1164.109091 630 
L 1164.109091 630 
L 1160.050909 630 
z
" style="fill:#1f77b4;"/>
   </g>
   <g id="patch_233">
    <path clip-path="url(#pe26f258846)" d="M 1164.109091 630 
L 1168.167273 630 
L 1168.167273 630 
L 1164.109091 630 
z
" style="fill:#1f77b4;"/>
   </g>
   <g id="patch_234">
    <path clip-path="url(#pe26f258846)" d="M 1168.167273 630 
L 1172.225455 630 
L 1172.225455 630 
L 1168.167273 630 
z
" style="fill:#1f77b4;"/>
   </g>
   <g id="patch_235">
    <path clip-path="url(#pe26f258846)" d="M 1172.225455 630 
L 1176.283636 630 
L 1176.283636 630 
L 1172.225455 630 
z
" style="fill:#1f77b4;"/>
   </g>
   <g id="patch_236">
    <path clip-path="url(#pe26f258846)" d="M 1176.283636 630 
L 1180.341818 630 
L 1180.341818 630 
L 1176.283636 630 
z
" style="fill:#1f77b4;"/>
   </g>
   <g id="patch_237">
    <path clip-path="url(#pe26f258846)" d="M 1180.341818 630 
L 1184.4 630 
L 1184.4 630 
L 1180.341818 630 
z
" style="fill:#1f77b4;"/>
   </g>
   <g id="patch_238">
    <path clip-path="url(#pe26f258846)" d="M 1184.4 630 
L 1188.458182 630 
L 1188.458182 630 
L 1184.4 630 
z
" style="fill:#1f77b4;"/>
   </g>
   <g id="patch_239">
    <path clip-path="url(#pe26f258846)" d="M 1188.458182 630 
L 1192.516364 630 
L 1192.516364 630 
L 1188.458182 630 
z
" style="fill:#1f77b4;"/>
   </g>
   <g id="patch_240">
    <path clip-path="url(#pe26f258846)" d="M 1192.516364 630 
L 1196.574545 630 
L 1196.574545 630 
L 1192.516364 630 
z
" style="fill:#1f77b4;"/>
   </g>
   <g id="patch_241">
    <path clip-path="url(#pe26f258846)" d="M 1196.574545 630 
L 1200.632727 630 
L 1200.632727 630 
L 1196.574545 630 
z
" style="fill:#1f77b4;"/>
   </g>
   <g id="patch_242">
    <path clip-path="url(#pe26f258846)" d="M 1200.632727 630 
L 1204.690909 630 
L 1204.690909 630 
L 1200.632727 630 
z
" style="fill:#1f77b4;"/>
   </g>
   <g id="patch_243">
    <path clip-path="url(#pe26f258846)" d="M 1204.690909 630 
L 1208.749091 630 
L 1208.749091 630 
L 1204.690909 630 
z
" style="fill:#1f77b4;"/>
   </g>
   <g id="patch_244">
    <path clip-path="url(#pe26f258846)" d="M 1208.749091 630 
L 1212.807273 630 
L 1212.807273 630 
L 1208.749091 630 
z
" style="fill:#1f77b4;"/>
   </g>
   <g id="patch_245">
    <path clip-path="url(#pe26f258846)" d="M 1212.807273 630 
L 1216.865455 630 
L 1216.865455 630 
L 1212.807273 630 
z
" style="fill:#1f77b4;"/>
   </g>
   <g id="patch_246">
    <path clip-path="url(#pe26f258846)" d="M 1216.865455 630 
L 1220.923636 630 
L 1220.923636 630 
L 1216.865455 630 
z
" style="fill:#1f77b4;"/>
   </g>
   <g id="patch_247">
    <path clip-path="url(#pe26f258846)" d="M 1220.923636 630 
L 1224.981818 630 
L 1224.981818 630 
L 1220.923636 630 
z
" style="fill:#1f77b4;"/>
   </g>
   <g id="patch_248">
    <path clip-path="url(#pe26f258846)" d="M 1224.981818 630 
L 1229.04 630 
L 1229.04 630 
L 1224.981818 630 
z
" style="fill:#1f77b4;"/>
   </g>
   <g id="patch_249">
    <path clip-path="url(#pe26f258846)" d="M 1229.04 630 
L 1233.098182 630 
L 1233.098182 630 
L 1229.04 630 
z
" style="fill:#1f77b4;"/>
   </g>
   <g id="patch_250">
    <path clip-path="url(#pe26f258846)" d="M 1233.098182 630 
L 1237.156364 630 
L 1237.156364 630 
L 1233.098182 630 
z
" style="fill:#1f77b4;"/>
   </g>
   <g id="patch_251">
    <path clip-path="url(#pe26f258846)" d="M 1237.156364 630 
L 1241.214545 630 
L 1241.214545 630 
L 1237.156364 630 
z
" style="fill:#1f77b4;"/>
   </g>
   <g id="patch_252">
    <path clip-path="url(#pe26f258846)" d="M 1241.214545 630 
L 1245.272727 630 
L 1245.272727 629.981396 
L 1241.214545 629.981396 
z
" style="fill:#1f77b4;"/>
   </g>
   <g id="matplotlib.axis_1">
    <g id="xtick_1">
     <g id="line2d_1">
      <path clip-path="url(#pe26f258846)" d="M 230.727273 630 
L 230.727273 86.4 
" style="fill:none;stroke:#b0b0b0;stroke-linecap:square;stroke-width:0.8;"/>
     </g>
     <g id="line2d_2">
      <defs>
       <path d="M 0 0 
L 0 3.5 
" id="m5ac01761ad" style="stroke:#000000;stroke-width:0.8;"/>
      </defs>
      <g>
       <use style="stroke:#000000;stroke-width:0.8;" x="230.727273" xlink:href="#m5ac01761ad" y="630"/>
      </g>
     </g>
     <g id="text_1">
      <!-- 0 -->
      <defs>
       <path d="M 31.78125 66.40625 
Q 24.171875 66.40625 20.328125 58.90625 
Q 16.5 51.421875 16.5 36.375 
Q 16.5 21.390625 20.328125 13.890625 
Q 24.171875 6.390625 31.78125 6.390625 
Q 39.453125 6.390625 43.28125 13.890625 
Q 47.125 21.390625 47.125 36.375 
Q 47.125 51.421875 43.28125 58.90625 
Q 39.453125 66.40625 31.78125 66.40625 
z
M 31.78125 74.21875 
Q 44.046875 74.21875 50.515625 64.515625 
Q 56.984375 54.828125 56.984375 36.375 
Q 56.984375 17.96875 50.515625 8.265625 
Q 44.046875 -1.421875 31.78125 -1.421875 
Q 19.53125 -1.421875 13.0625 8.265625 
Q 6.59375 17.96875 6.59375 36.375 
Q 6.59375 54.828125 13.0625 64.515625 
Q 19.53125 74.21875 31.78125 74.21875 
z
" id="DejaVuSans-48"/>
      </defs>
      <g transform="translate(227.546023 644.598438)scale(0.1 -0.1)">
       <use xlink:href="#DejaVuSans-48"/>
      </g>
     </g>
    </g>
    <g id="xtick_2">
     <g id="line2d_3">
      <path clip-path="url(#pe26f258846)" d="M 372.265422 630 
L 372.265422 86.4 
" style="fill:none;stroke:#b0b0b0;stroke-linecap:square;stroke-width:0.8;"/>
     </g>
     <g id="line2d_4">
      <g>
       <use style="stroke:#000000;stroke-width:0.8;" x="372.265422" xlink:href="#m5ac01761ad" y="630"/>
      </g>
     </g>
     <g id="text_2">
      <!-- 250 -->
      <defs>
       <path d="M 19.1875 8.296875 
L 53.609375 8.296875 
L 53.609375 0 
L 7.328125 0 
L 7.328125 8.296875 
Q 12.9375 14.109375 22.625 23.890625 
Q 32.328125 33.6875 34.8125 36.53125 
Q 39.546875 41.84375 41.421875 45.53125 
Q 43.3125 49.21875 43.3125 52.78125 
Q 43.3125 58.59375 39.234375 62.25 
Q 35.15625 65.921875 28.609375 65.921875 
Q 23.96875 65.921875 18.8125 64.3125 
Q 13.671875 62.703125 7.8125 59.421875 
L 7.8125 69.390625 
Q 13.765625 71.78125 18.9375 73 
Q 24.125 74.21875 28.421875 74.21875 
Q 39.75 74.21875 46.484375 68.546875 
Q 53.21875 62.890625 53.21875 53.421875 
Q 53.21875 48.921875 51.53125 44.890625 
Q 49.859375 40.875 45.40625 35.40625 
Q 44.1875 33.984375 37.640625 27.21875 
Q 31.109375 20.453125 19.1875 8.296875 
z
" id="DejaVuSans-50"/>
       <path d="M 10.796875 72.90625 
L 49.515625 72.90625 
L 49.515625 64.59375 
L 19.828125 64.59375 
L 19.828125 46.734375 
Q 21.96875 47.46875 24.109375 47.828125 
Q 26.265625 48.1875 28.421875 48.1875 
Q 40.625 48.1875 47.75 41.5 
Q 54.890625 34.8125 54.890625 23.390625 
Q 54.890625 11.625 47.5625 5.09375 
Q 40.234375 -1.421875 26.90625 -1.421875 
Q 22.3125 -1.421875 17.546875 -0.640625 
Q 12.796875 0.140625 7.71875 1.703125 
L 7.71875 11.625 
Q 12.109375 9.234375 16.796875 8.0625 
Q 21.484375 6.890625 26.703125 6.890625 
Q 35.15625 6.890625 40.078125 11.328125 
Q 45.015625 15.765625 45.015625 23.390625 
Q 45.015625 31 40.078125 35.4375 
Q 35.15625 39.890625 26.703125 39.890625 
Q 22.75 39.890625 18.8125 39.015625 
Q 14.890625 38.140625 10.796875 36.28125 
z
" id="DejaVuSans-53"/>
      </defs>
      <g transform="translate(362.721672 644.598438)scale(0.1 -0.1)">
       <use xlink:href="#DejaVuSans-50"/>
       <use x="63.623047" xlink:href="#DejaVuSans-53"/>
       <use x="127.246094" xlink:href="#DejaVuSans-48"/>
      </g>
     </g>
    </g>
    <g id="xtick_3">
     <g id="line2d_5">
      <path clip-path="url(#pe26f258846)" d="M 513.803571 630 
L 513.803571 86.4 
" style="fill:none;stroke:#b0b0b0;stroke-linecap:square;stroke-width:0.8;"/>
     </g>
     <g id="line2d_6">
      <g>
       <use style="stroke:#000000;stroke-width:0.8;" x="513.803571" xlink:href="#m5ac01761ad" y="630"/>
      </g>
     </g>
     <g id="text_3">
      <!-- 500 -->
      <g transform="translate(504.259821 644.598438)scale(0.1 -0.1)">
       <use xlink:href="#DejaVuSans-53"/>
       <use x="63.623047" xlink:href="#DejaVuSans-48"/>
       <use x="127.246094" xlink:href="#DejaVuSans-48"/>
      </g>
     </g>
    </g>
    <g id="xtick_4">
     <g id="line2d_7">
      <path clip-path="url(#pe26f258846)" d="M 655.341721 630 
L 655.341721 86.4 
" style="fill:none;stroke:#b0b0b0;stroke-linecap:square;stroke-width:0.8;"/>
     </g>
     <g id="line2d_8">
      <g>
       <use style="stroke:#000000;stroke-width:0.8;" x="655.341721" xlink:href="#m5ac01761ad" y="630"/>
      </g>
     </g>
     <g id="text_4">
      <!-- 750 -->
      <defs>
       <path d="M 8.203125 72.90625 
L 55.078125 72.90625 
L 55.078125 68.703125 
L 28.609375 0 
L 18.3125 0 
L 43.21875 64.59375 
L 8.203125 64.59375 
z
" id="DejaVuSans-55"/>
      </defs>
      <g transform="translate(645.797971 644.598438)scale(0.1 -0.1)">
       <use xlink:href="#DejaVuSans-55"/>
       <use x="63.623047" xlink:href="#DejaVuSans-53"/>
       <use x="127.246094" xlink:href="#DejaVuSans-48"/>
      </g>
     </g>
    </g>
    <g id="xtick_5">
     <g id="line2d_9">
      <path clip-path="url(#pe26f258846)" d="M 796.87987 630 
L 796.87987 86.4 
" style="fill:none;stroke:#b0b0b0;stroke-linecap:square;stroke-width:0.8;"/>
     </g>
     <g id="line2d_10">
      <g>
       <use style="stroke:#000000;stroke-width:0.8;" x="796.87987" xlink:href="#m5ac01761ad" y="630"/>
      </g>
     </g>
     <g id="text_5">
      <!-- 1000 -->
      <defs>
       <path d="M 12.40625 8.296875 
L 28.515625 8.296875 
L 28.515625 63.921875 
L 10.984375 60.40625 
L 10.984375 69.390625 
L 28.421875 72.90625 
L 38.28125 72.90625 
L 38.28125 8.296875 
L 54.390625 8.296875 
L 54.390625 0 
L 12.40625 0 
z
" id="DejaVuSans-49"/>
      </defs>
      <g transform="translate(784.15487 644.598438)scale(0.1 -0.1)">
       <use xlink:href="#DejaVuSans-49"/>
       <use x="63.623047" xlink:href="#DejaVuSans-48"/>
       <use x="127.246094" xlink:href="#DejaVuSans-48"/>
       <use x="190.869141" xlink:href="#DejaVuSans-48"/>
      </g>
     </g>
    </g>
    <g id="xtick_6">
     <g id="line2d_11">
      <path clip-path="url(#pe26f258846)" d="M 938.418019 630 
L 938.418019 86.4 
" style="fill:none;stroke:#b0b0b0;stroke-linecap:square;stroke-width:0.8;"/>
     </g>
     <g id="line2d_12">
      <g>
       <use style="stroke:#000000;stroke-width:0.8;" x="938.418019" xlink:href="#m5ac01761ad" y="630"/>
      </g>
     </g>
     <g id="text_6">
      <!-- 1250 -->
      <g transform="translate(925.693019 644.598438)scale(0.1 -0.1)">
       <use xlink:href="#DejaVuSans-49"/>
       <use x="63.623047" xlink:href="#DejaVuSans-50"/>
       <use x="127.246094" xlink:href="#DejaVuSans-53"/>
       <use x="190.869141" xlink:href="#DejaVuSans-48"/>
      </g>
     </g>
    </g>
    <g id="xtick_7">
     <g id="line2d_13">
      <path clip-path="url(#pe26f258846)" d="M 1079.956169 630 
L 1079.956169 86.4 
" style="fill:none;stroke:#b0b0b0;stroke-linecap:square;stroke-width:0.8;"/>
     </g>
     <g id="line2d_14">
      <g>
       <use style="stroke:#000000;stroke-width:0.8;" x="1079.956169" xlink:href="#m5ac01761ad" y="630"/>
      </g>
     </g>
     <g id="text_7">
      <!-- 1500 -->
      <g transform="translate(1067.231169 644.598438)scale(0.1 -0.1)">
       <use xlink:href="#DejaVuSans-49"/>
       <use x="63.623047" xlink:href="#DejaVuSans-53"/>
       <use x="127.246094" xlink:href="#DejaVuSans-48"/>
       <use x="190.869141" xlink:href="#DejaVuSans-48"/>
      </g>
     </g>
    </g>
    <g id="xtick_8">
     <g id="line2d_15">
      <path clip-path="url(#pe26f258846)" d="M 1221.494318 630 
L 1221.494318 86.4 
" style="fill:none;stroke:#b0b0b0;stroke-linecap:square;stroke-width:0.8;"/>
     </g>
     <g id="line2d_16">
      <g>
       <use style="stroke:#000000;stroke-width:0.8;" x="1221.494318" xlink:href="#m5ac01761ad" y="630"/>
      </g>
     </g>
     <g id="text_8">
      <!-- 1750 -->
      <g transform="translate(1208.769318 644.598438)scale(0.1 -0.1)">
       <use xlink:href="#DejaVuSans-49"/>
       <use x="63.623047" xlink:href="#DejaVuSans-55"/>
       <use x="127.246094" xlink:href="#DejaVuSans-53"/>
       <use x="190.869141" xlink:href="#DejaVuSans-48"/>
      </g>
     </g>
    </g>
   </g>
   <g id="matplotlib.axis_2">
    <g id="ytick_1">
     <g id="line2d_17">
      <path clip-path="url(#pe26f258846)" d="M 180 630 
L 1296 630 
" style="fill:none;stroke:#b0b0b0;stroke-linecap:square;stroke-width:0.8;"/>
     </g>
     <g id="line2d_18">
      <defs>
       <path d="M 0 0 
L -3.5 0 
" id="m4f4c693005" style="stroke:#000000;stroke-width:0.8;"/>
      </defs>
      <g>
       <use style="stroke:#000000;stroke-width:0.8;" x="180" xlink:href="#m4f4c693005" y="630"/>
      </g>
     </g>
     <g id="text_9">
      <!-- 0 -->
      <g transform="translate(166.6375 633.799219)scale(0.1 -0.1)">
       <use xlink:href="#DejaVuSans-48"/>
      </g>
     </g>
    </g>
    <g id="ytick_2">
     <g id="line2d_19">
      <path clip-path="url(#pe26f258846)" d="M 180 536.979609 
L 1296 536.979609 
" style="fill:none;stroke:#b0b0b0;stroke-linecap:square;stroke-width:0.8;"/>
     </g>
     <g id="line2d_20">
      <g>
       <use style="stroke:#000000;stroke-width:0.8;" x="180" xlink:href="#m4f4c693005" y="536.979609"/>
      </g>
     </g>
     <g id="text_10">
      <!-- 5000 -->
      <g transform="translate(147.55 540.778828)scale(0.1 -0.1)">
       <use xlink:href="#DejaVuSans-53"/>
       <use x="63.623047" xlink:href="#DejaVuSans-48"/>
       <use x="127.246094" xlink:href="#DejaVuSans-48"/>
       <use x="190.869141" xlink:href="#DejaVuSans-48"/>
      </g>
     </g>
    </g>
    <g id="ytick_3">
     <g id="line2d_21">
      <path clip-path="url(#pe26f258846)" d="M 180 443.959219 
L 1296 443.959219 
" style="fill:none;stroke:#b0b0b0;stroke-linecap:square;stroke-width:0.8;"/>
     </g>
     <g id="line2d_22">
      <g>
       <use style="stroke:#000000;stroke-width:0.8;" x="180" xlink:href="#m4f4c693005" y="443.959219"/>
      </g>
     </g>
     <g id="text_11">
      <!-- 10000 -->
      <g transform="translate(141.1875 447.758438)scale(0.1 -0.1)">
       <use xlink:href="#DejaVuSans-49"/>
       <use x="63.623047" xlink:href="#DejaVuSans-48"/>
       <use x="127.246094" xlink:href="#DejaVuSans-48"/>
       <use x="190.869141" xlink:href="#DejaVuSans-48"/>
       <use x="254.492188" xlink:href="#DejaVuSans-48"/>
      </g>
     </g>
    </g>
    <g id="ytick_4">
     <g id="line2d_23">
      <path clip-path="url(#pe26f258846)" d="M 180 350.938828 
L 1296 350.938828 
" style="fill:none;stroke:#b0b0b0;stroke-linecap:square;stroke-width:0.8;"/>
     </g>
     <g id="line2d_24">
      <g>
       <use style="stroke:#000000;stroke-width:0.8;" x="180" xlink:href="#m4f4c693005" y="350.938828"/>
      </g>
     </g>
     <g id="text_12">
      <!-- 15000 -->
      <g transform="translate(141.1875 354.738047)scale(0.1 -0.1)">
       <use xlink:href="#DejaVuSans-49"/>
       <use x="63.623047" xlink:href="#DejaVuSans-53"/>
       <use x="127.246094" xlink:href="#DejaVuSans-48"/>
       <use x="190.869141" xlink:href="#DejaVuSans-48"/>
       <use x="254.492188" xlink:href="#DejaVuSans-48"/>
      </g>
     </g>
    </g>
    <g id="ytick_5">
     <g id="line2d_25">
      <path clip-path="url(#pe26f258846)" d="M 180 257.918438 
L 1296 257.918438 
" style="fill:none;stroke:#b0b0b0;stroke-linecap:square;stroke-width:0.8;"/>
     </g>
     <g id="line2d_26">
      <g>
       <use style="stroke:#000000;stroke-width:0.8;" x="180" xlink:href="#m4f4c693005" y="257.918438"/>
      </g>
     </g>
     <g id="text_13">
      <!-- 20000 -->
      <g transform="translate(141.1875 261.717657)scale(0.1 -0.1)">
       <use xlink:href="#DejaVuSans-50"/>
       <use x="63.623047" xlink:href="#DejaVuSans-48"/>
       <use x="127.246094" xlink:href="#DejaVuSans-48"/>
       <use x="190.869141" xlink:href="#DejaVuSans-48"/>
       <use x="254.492188" xlink:href="#DejaVuSans-48"/>
      </g>
     </g>
    </g>
    <g id="ytick_6">
     <g id="line2d_27">
      <path clip-path="url(#pe26f258846)" d="M 180 164.898047 
L 1296 164.898047 
" style="fill:none;stroke:#b0b0b0;stroke-linecap:square;stroke-width:0.8;"/>
     </g>
     <g id="line2d_28">
      <g>
       <use style="stroke:#000000;stroke-width:0.8;" x="180" xlink:href="#m4f4c693005" y="164.898047"/>
      </g>
     </g>
     <g id="text_14">
      <!-- 25000 -->
      <g transform="translate(141.1875 168.697266)scale(0.1 -0.1)">
       <use xlink:href="#DejaVuSans-50"/>
       <use x="63.623047" xlink:href="#DejaVuSans-53"/>
       <use x="127.246094" xlink:href="#DejaVuSans-48"/>
       <use x="190.869141" xlink:href="#DejaVuSans-48"/>
       <use x="254.492188" xlink:href="#DejaVuSans-48"/>
      </g>
     </g>
    </g>
   </g>
   <g id="patch_253">
    <path d="M 180 630 
L 180 86.4 
" style="fill:none;stroke:#000000;stroke-linecap:square;stroke-linejoin:miter;stroke-width:0.8;"/>
   </g>
   <g id="patch_254">
    <path d="M 1296 630 
L 1296 86.4 
" style="fill:none;stroke:#000000;stroke-linecap:square;stroke-linejoin:miter;stroke-width:0.8;"/>
   </g>
   <g id="patch_255">
    <path d="M 180 630 
L 1296 630 
" style="fill:none;stroke:#000000;stroke-linecap:square;stroke-linejoin:miter;stroke-width:0.8;"/>
   </g>
   <g id="patch_256">
    <path d="M 180 86.4 
L 1296 86.4 
" style="fill:none;stroke:#000000;stroke-linecap:square;stroke-linejoin:miter;stroke-width:0.8;"/>
   </g>
   <g id="text_15">
    <!-- totalDependsOn -->
    <defs>
     <path d="M 18.3125 70.21875 
L 18.3125 54.6875 
L 36.8125 54.6875 
L 36.8125 47.703125 
L 18.3125 47.703125 
L 18.3125 18.015625 
Q 18.3125 11.328125 20.140625 9.421875 
Q 21.96875 7.515625 27.59375 7.515625 
L 36.8125 7.515625 
L 36.8125 0 
L 27.59375 0 
Q 17.1875 0 13.234375 3.875 
Q 9.28125 7.765625 9.28125 18.015625 
L 9.28125 47.703125 
L 2.6875 47.703125 
L 2.6875 54.6875 
L 9.28125 54.6875 
L 9.28125 70.21875 
z
" id="DejaVuSans-116"/>
     <path d="M 30.609375 48.390625 
Q 23.390625 48.390625 19.1875 42.75 
Q 14.984375 37.109375 14.984375 27.296875 
Q 14.984375 17.484375 19.15625 11.84375 
Q 23.34375 6.203125 30.609375 6.203125 
Q 37.796875 6.203125 41.984375 11.859375 
Q 46.1875 17.53125 46.1875 27.296875 
Q 46.1875 37.015625 41.984375 42.703125 
Q 37.796875 48.390625 30.609375 48.390625 
z
M 30.609375 56 
Q 42.328125 56 49.015625 48.375 
Q 55.71875 40.765625 55.71875 27.296875 
Q 55.71875 13.875 49.015625 6.21875 
Q 42.328125 -1.421875 30.609375 -1.421875 
Q 18.84375 -1.421875 12.171875 6.21875 
Q 5.515625 13.875 5.515625 27.296875 
Q 5.515625 40.765625 12.171875 48.375 
Q 18.84375 56 30.609375 56 
z
" id="DejaVuSans-111"/>
     <path d="M 34.28125 27.484375 
Q 23.390625 27.484375 19.1875 25 
Q 14.984375 22.515625 14.984375 16.5 
Q 14.984375 11.71875 18.140625 8.90625 
Q 21.296875 6.109375 26.703125 6.109375 
Q 34.1875 6.109375 38.703125 11.40625 
Q 43.21875 16.703125 43.21875 25.484375 
L 43.21875 27.484375 
z
M 52.203125 31.203125 
L 52.203125 0 
L 43.21875 0 
L 43.21875 8.296875 
Q 40.140625 3.328125 35.546875 0.953125 
Q 30.953125 -1.421875 24.3125 -1.421875 
Q 15.921875 -1.421875 10.953125 3.296875 
Q 6 8.015625 6 15.921875 
Q 6 25.140625 12.171875 29.828125 
Q 18.359375 34.515625 30.609375 34.515625 
L 43.21875 34.515625 
L 43.21875 35.40625 
Q 43.21875 41.609375 39.140625 45 
Q 35.0625 48.390625 27.6875 48.390625 
Q 23 48.390625 18.546875 47.265625 
Q 14.109375 46.140625 10.015625 43.890625 
L 10.015625 52.203125 
Q 14.9375 54.109375 19.578125 55.046875 
Q 24.21875 56 28.609375 56 
Q 40.484375 56 46.34375 49.84375 
Q 52.203125 43.703125 52.203125 31.203125 
z
" id="DejaVuSans-97"/>
     <path d="M 9.421875 75.984375 
L 18.40625 75.984375 
L 18.40625 0 
L 9.421875 0 
z
" id="DejaVuSans-108"/>
     <path d="M 19.671875 64.796875 
L 19.671875 8.109375 
L 31.59375 8.109375 
Q 46.6875 8.109375 53.6875 14.9375 
Q 60.6875 21.78125 60.6875 36.53125 
Q 60.6875 51.171875 53.6875 57.984375 
Q 46.6875 64.796875 31.59375 64.796875 
z
M 9.8125 72.90625 
L 30.078125 72.90625 
Q 51.265625 72.90625 61.171875 64.09375 
Q 71.09375 55.28125 71.09375 36.53125 
Q 71.09375 17.671875 61.125 8.828125 
Q 51.171875 0 30.078125 0 
L 9.8125 0 
z
" id="DejaVuSans-68"/>
     <path d="M 56.203125 29.59375 
L 56.203125 25.203125 
L 14.890625 25.203125 
Q 15.484375 15.921875 20.484375 11.0625 
Q 25.484375 6.203125 34.421875 6.203125 
Q 39.59375 6.203125 44.453125 7.46875 
Q 49.3125 8.734375 54.109375 11.28125 
L 54.109375 2.78125 
Q 49.265625 0.734375 44.1875 -0.34375 
Q 39.109375 -1.421875 33.890625 -1.421875 
Q 20.796875 -1.421875 13.15625 6.1875 
Q 5.515625 13.8125 5.515625 26.8125 
Q 5.515625 40.234375 12.765625 48.109375 
Q 20.015625 56 32.328125 56 
Q 43.359375 56 49.78125 48.890625 
Q 56.203125 41.796875 56.203125 29.59375 
z
M 47.21875 32.234375 
Q 47.125 39.59375 43.09375 43.984375 
Q 39.0625 48.390625 32.421875 48.390625 
Q 24.90625 48.390625 20.390625 44.140625 
Q 15.875 39.890625 15.1875 32.171875 
z
" id="DejaVuSans-101"/>
     <path d="M 18.109375 8.203125 
L 18.109375 -20.796875 
L 9.078125 -20.796875 
L 9.078125 54.6875 
L 18.109375 54.6875 
L 18.109375 46.390625 
Q 20.953125 51.265625 25.265625 53.625 
Q 29.59375 56 35.59375 56 
Q 45.5625 56 51.78125 48.09375 
Q 58.015625 40.1875 58.015625 27.296875 
Q 58.015625 14.40625 51.78125 6.484375 
Q 45.5625 -1.421875 35.59375 -1.421875 
Q 29.59375 -1.421875 25.265625 0.953125 
Q 20.953125 3.328125 18.109375 8.203125 
z
M 48.6875 27.296875 
Q 48.6875 37.203125 44.609375 42.84375 
Q 40.53125 48.484375 33.40625 48.484375 
Q 26.265625 48.484375 22.1875 42.84375 
Q 18.109375 37.203125 18.109375 27.296875 
Q 18.109375 17.390625 22.1875 11.75 
Q 26.265625 6.109375 33.40625 6.109375 
Q 40.53125 6.109375 44.609375 11.75 
Q 48.6875 17.390625 48.6875 27.296875 
z
" id="DejaVuSans-112"/>
     <path d="M 54.890625 33.015625 
L 54.890625 0 
L 45.90625 0 
L 45.90625 32.71875 
Q 45.90625 40.484375 42.875 44.328125 
Q 39.84375 48.1875 33.796875 48.1875 
Q 26.515625 48.1875 22.3125 43.546875 
Q 18.109375 38.921875 18.109375 30.90625 
L 18.109375 0 
L 9.078125 0 
L 9.078125 54.6875 
L 18.109375 54.6875 
L 18.109375 46.1875 
Q 21.34375 51.125 25.703125 53.5625 
Q 30.078125 56 35.796875 56 
Q 45.21875 56 50.046875 50.171875 
Q 54.890625 44.34375 54.890625 33.015625 
z
" id="DejaVuSans-110"/>
     <path d="M 45.40625 46.390625 
L 45.40625 75.984375 
L 54.390625 75.984375 
L 54.390625 0 
L 45.40625 0 
L 45.40625 8.203125 
Q 42.578125 3.328125 38.25 0.953125 
Q 33.9375 -1.421875 27.875 -1.421875 
Q 17.96875 -1.421875 11.734375 6.484375 
Q 5.515625 14.40625 5.515625 27.296875 
Q 5.515625 40.1875 11.734375 48.09375 
Q 17.96875 56 27.875 56 
Q 33.9375 56 38.25 53.625 
Q 42.578125 51.265625 45.40625 46.390625 
z
M 14.796875 27.296875 
Q 14.796875 17.390625 18.875 11.75 
Q 22.953125 6.109375 30.078125 6.109375 
Q 37.203125 6.109375 41.296875 11.75 
Q 45.40625 17.390625 45.40625 27.296875 
Q 45.40625 37.203125 41.296875 42.84375 
Q 37.203125 48.484375 30.078125 48.484375 
Q 22.953125 48.484375 18.875 42.84375 
Q 14.796875 37.203125 14.796875 27.296875 
z
" id="DejaVuSans-100"/>
     <path d="M 44.28125 53.078125 
L 44.28125 44.578125 
Q 40.484375 46.53125 36.375 47.5 
Q 32.28125 48.484375 27.875 48.484375 
Q 21.1875 48.484375 17.84375 46.4375 
Q 14.5 44.390625 14.5 40.28125 
Q 14.5 37.15625 16.890625 35.375 
Q 19.28125 33.59375 26.515625 31.984375 
L 29.59375 31.296875 
Q 39.15625 29.25 43.1875 25.515625 
Q 47.21875 21.78125 47.21875 15.09375 
Q 47.21875 7.46875 41.1875 3.015625 
Q 35.15625 -1.421875 24.609375 -1.421875 
Q 20.21875 -1.421875 15.453125 -0.5625 
Q 10.6875 0.296875 5.421875 2 
L 5.421875 11.28125 
Q 10.40625 8.6875 15.234375 7.390625 
Q 20.0625 6.109375 24.8125 6.109375 
Q 31.15625 6.109375 34.5625 8.28125 
Q 37.984375 10.453125 37.984375 14.40625 
Q 37.984375 18.0625 35.515625 20.015625 
Q 33.0625 21.96875 24.703125 23.78125 
L 21.578125 24.515625 
Q 13.234375 26.265625 9.515625 29.90625 
Q 5.8125 33.546875 5.8125 39.890625 
Q 5.8125 47.609375 11.28125 51.796875 
Q 16.75 56 26.8125 56 
Q 31.78125 56 36.171875 55.265625 
Q 40.578125 54.546875 44.28125 53.078125 
z
" id="DejaVuSans-115"/>
     <path d="M 39.40625 66.21875 
Q 28.65625 66.21875 22.328125 58.203125 
Q 16.015625 50.203125 16.015625 36.375 
Q 16.015625 22.609375 22.328125 14.59375 
Q 28.65625 6.59375 39.40625 6.59375 
Q 50.140625 6.59375 56.421875 14.59375 
Q 62.703125 22.609375 62.703125 36.375 
Q 62.703125 50.203125 56.421875 58.203125 
Q 50.140625 66.21875 39.40625 66.21875 
z
M 39.40625 74.21875 
Q 54.734375 74.21875 63.90625 63.9375 
Q 73.09375 53.65625 73.09375 36.375 
Q 73.09375 19.140625 63.90625 8.859375 
Q 54.734375 -1.421875 39.40625 -1.421875 
Q 24.03125 -1.421875 14.8125 8.828125 
Q 5.609375 19.09375 5.609375 36.375 
Q 5.609375 53.65625 14.8125 63.9375 
Q 24.03125 74.21875 39.40625 74.21875 
z
" id="DejaVuSans-79"/>
    </defs>
    <g transform="translate(689.205 80.4)scale(0.12 -0.12)">
     <use xlink:href="#DejaVuSans-116"/>
     <use x="39.208984" xlink:href="#DejaVuSans-111"/>
     <use x="100.390625" xlink:href="#DejaVuSans-116"/>
     <use x="139.599609" xlink:href="#DejaVuSans-97"/>
     <use x="200.878906" xlink:href="#DejaVuSans-108"/>
     <use x="228.662109" xlink:href="#DejaVuSans-68"/>
     <use x="305.664062" xlink:href="#DejaVuSans-101"/>
     <use x="367.1875" xlink:href="#DejaVuSans-112"/>
     <use x="430.664062" xlink:href="#DejaVuSans-101"/>
     <use x="492.1875" xlink:href="#DejaVuSans-110"/>
     <use x="555.566406" xlink:href="#DejaVuSans-100"/>
     <use x="619.042969" xlink:href="#DejaVuSans-115"/>
     <use x="671.142578" xlink:href="#DejaVuSans-79"/>
     <use x="749.853516" xlink:href="#DejaVuSans-110"/>
    </g>
   </g>
  </g>
 </g>
 <defs>
  <clipPath id="pe26f258846">
   <rect height="543.6" width="1116" x="180" y="86.4"/>
  </clipPath>
 </defs>
</svg>
